<?xml version="1.0" encoding="UTF-8" standalone="no"?>
<!DOCTYPE svg PUBLIC "-//W3C//DTD SVG 1.1//EN" "http://www.w3.org/Graphics/SVG/1.1/DTD/svg11.dtd">
<svg xmlns="http://www.w3.org/2000/svg" version="1.1" viewBox="0.00 0.00 640.00 640.00">
<path fill="#848587" d="
  M 293.50 43.76
  C 197.27 51.41 124.41 105.19 79.57 188.32
  C 39.03 263.46 36.10 351.30 71.85 428.85
  C 107.43 506.03 174.05 562.75 256.55 582.96
  C 378.09 612.73 500.65 556.65 562.33 448.87
  C 596.83 388.60 603.52 320.32 589.00 253.74
  Q 586.85 243.84 584.54 233.94
  C 582.05 223.27 592.45 211.65 603.34 217.88
  C 608.22 220.67 610.67 225.41 612.22 230.77
  C 663.13 406.48 553.05 580.55 374.68 614.16
  C 249.36 637.77 123.54 576.34 60.39 467.72
  C 21.26 400.41 9.07 320.16 27.33 244.57
  C 49.59 152.45 118.28 72.01 207.01 36.16
  Q 291.77 1.92 382.78 19.71
  Q 387.54 20.64 404.46 24.20
  C 413.42 26.08 420.98 30.48 421.91 40.57
  C 422.48 46.79 418.29 53.30 411.88 54.21
  Q 409.37 54.56 403.69 53.43
  C 387.54 50.23 371.17 46.75 354.87 44.54
  C 334.81 41.82 313.32 42.19 293.50 43.76
  Z"
/>
<path fill="#f17524" d="
  M 423.92 235.75
  C 394.89 265.31 361.87 302.18 326.44 329.53
  Q 325.75 330.06 324.94 330.18
  Q 323.70 330.35 323.26 330.24
  Q 308.67 326.47 307.65 311.27
  Q 307.60 310.63 308.21 309.48
  Q 308.58 308.75 309.33 308.01
  Q 359.17 258.38 408.67 208.41
  C 412.88 204.17 413.92 192.24 414.30 185.93
  Q 415.27 169.76 415.56 153.56
  C 415.63 149.62 415.53 141.16 419.21 137.47
  Q 462.55 94.05 505.92 50.67
  C 514.97 41.62 525.73 39.78 533.53 51.52
  C 534.79 53.43 534.49 54.91 534.52 57.06
  Q 534.82 79.79 535.30 102.13
  A 1.95 1.94 -1.2 0 0 537.29 104.03
  Q 562.01 103.58 586.01 103.78
  Q 587.24 103.79 589.14 105.28
  C 594.81 109.73 596.30 117.75 593.81 123.67
  Q 592.22 127.46 584.57 135.02
  Q 547.24 171.96 510.54 209.55
  Q 497.81 222.60 479.30 223.11
  C 464.48 223.52 446.99 220.16 433.47 227.80
  Q 429.55 230.02 423.92 235.75
  Z
  M 518.28 131.08
  C 506.98 129.77 506.51 118.89 505.44 110.18
  C 505.02 106.73 505.32 101.33 503.67 98.32
  A 1.01 1.01 0.0 0 0 502.89 97.79
  Q 501.08 97.57 499.69 98.95
  Q 473.50 124.95 447.64 151.28
  C 445.17 153.79 445.38 154.66 445.27 158.00
  Q 444.72 174.84 444.31 191.34
  A 2.59 2.58 -89.2 0 0 446.88 193.99
  Q 461.35 194.03 475.93 193.98
  C 480.62 193.96 485.10 193.20 488.19 190.19
  Q 499.87 178.81 540.77 137.26
  Q 543.45 134.54 539.89 132.32
  A 1.48 1.46 -29.3 0 0 539.08 132.10
  Q 528.63 132.28 518.28 131.08
  Z"
/>
<path fill="#848587" d="
  M 377.23 518.15
  C 213.59 562.15 64.25 402.01 125.67 241.43
  C 158.31 156.08 239.45 104.16 330.50 105.27
  C 335.63 105.34 341.37 106.32 345.37 109.42
  C 354.35 116.35 351.22 129.09 340.46 132.16
  Q 338.26 132.79 333.50 132.73
  Q 317.02 132.51 307.75 133.49
  C 194.76 145.40 119.42 248.26 146.06 360.19
  C 167.55 450.45 257.85 508.26 348.88 496.10
  C 390.20 490.57 427.18 470.22 455.99 439.72
  C 490.51 403.17 506.04 356.93 505.36 307.00
  C 505.25 298.60 507.69 285.51 518.71 286.21
  C 533.95 287.19 534.73 304.62 534.44 316.07
  C 531.98 412.63 470.28 493.13 377.23 518.15
  Z"
/>
<path fill="#848587" d="
  M 256.69 414.06
  C 218.46 389.39 197.38 343.43 204.17 298.32
  C 212.76 241.37 259.20 198.69 316.93 195.07
  C 324.99 194.56 331.56 197.75 334.86 205.10
  C 338.99 214.31 333.59 219.77 324.96 221.42
  C 315.04 223.32 303.89 225.06 295.19 227.81
  C 250.35 241.98 223.96 288.33 234.10 334.62
  C 248.87 402.00 330.38 432.21 383.27 383.27
  Q 411.69 356.97 414.97 317.24
  Q 415.34 312.80 418.33 306.64
  Q 418.54 306.21 418.95 305.95
  C 428.06 300.24 443.11 301.24 442.50 315.49
  C 440.20 368.87 407.07 417.00 354.51 430.84
  C 321.33 439.58 285.21 432.47 256.69 414.06
  Z"
/>
</svg>
