<?xml version="1.0" encoding="UTF-8" standalone="no"?>
<!DOCTYPE svg PUBLIC "-//W3C//DTD SVG 1.1//EN" "http://www.w3.org/Graphics/SVG/1.1/DTD/svg11.dtd">
<svg xmlns="http://www.w3.org/2000/svg" version="1.1" viewBox="0.00 0.00 212.00 212.00">
<rect fill="#e21e25" x="-4.83" y="-14.70" transform="translate(106.10,31.49) rotate(0.2)" width="9.66" height="29.40" rx="4.65"/>
<rect fill="#e21e25" x="-4.74" y="-14.78" transform="translate(69.34,40.03) rotate(-29.9)" width="9.48" height="29.56" rx="4.61"/>
<rect fill="#e21e25" x="-4.73" y="-14.69" transform="translate(142.73,39.97) rotate(30.0)" width="9.46" height="29.38" rx="4.59"/>
<path fill="#888888" d="
  M 154.58 69.02
  L 183.64 105.36
  A 1.43 1.42 -44.8 0 1 183.63 107.14
  L 106.67 201.34
  A 0.45 0.44 -44.7 0 1 105.98 201.34
  L 28.92 107.52
  A 2.10 2.09 44.7 0 1 28.90 104.87
  Q 42.39 87.99 56.43 70.35
  C 57.74 68.70 59.31 68.46 61.25 68.46
  Q 107.54 68.50 153.50 68.51
  A 1.40 1.40 0.0 0 1 154.58 69.02
  Z
  M 79.62 77.30
  A 0.96 0.96 0.0 0 0 78.72 76.03
  L 62.43 75.98
  A 0.96 0.96 0.0 0 0 61.67 76.35
  L 42.20 100.96
  A 0.96 0.96 0.0 0 0 42.97 102.51
  L 70.22 102.17
  A 0.96 0.96 0.0 0 0 71.11 101.53
  L 79.62 77.30
  Z
  M 123.36 76.59
  A 0.98 0.98 0.0 0 0 122.43 75.94
  L 89.54 76.18
  A 0.98 0.98 0.0 0 0 88.63 76.82
  L 79.94 101.04
  A 0.98 0.98 0.0 0 0 80.87 102.35
  L 131.09 102.20
  A 0.98 0.98 0.0 0 0 132.01 100.90
  L 123.36 76.59
  Z
  M 150.24 76.36
  A 0.80 0.80 0.0 0 0 149.62 76.06
  L 132.98 75.97
  A 0.80 0.80 0.0 0 0 132.22 77.03
  L 140.99 101.71
  A 0.80 0.80 0.0 0 0 141.74 102.24
  L 169.12 102.27
  A 0.80 0.80 0.0 0 0 169.75 100.97
  L 150.24 76.36
  Z
  M 70.55 110.18
  Q 70.28 110.08 69.94 109.92
  Q 69.66 109.78 69.37 109.79
  Q 56.26 110.15 43.54 109.96
  A 1.16 1.16 0.0 0 0 42.63 111.85
  L 91.28 170.96
  Q 92.22 172.11 92.32 170.63
  Q 92.37 169.81 91.80 168.23
  Q 81.44 139.41 70.99 110.62
  Q 70.87 110.30 70.55 110.18
  Z
  M 80.06 110.74
  Q 79.80 111.10 79.95 111.51
  L 105.27 181.12
  A 0.81 0.76 -34.1 0 0 106.59 181.33
  Q 106.84 181.06 107.17 180.18
  Q 120.11 145.61 132.27 110.88
  A 0.68 0.68 0.0 0 0 131.63 109.98
  Q 106.40 109.99 81.31 110.15
  Q 80.51 110.15 80.06 110.74
  Z
  M 140.89 111.06
  L 120.02 169.67
  Q 119.26 171.78 121.24 170.75
  Q 121.50 170.62 122.46 169.45
  Q 146.18 140.33 170.05 111.14
  A 0.70 0.70 0.0 0 0 169.51 110.00
  L 142.40 110.00
  A 1.61 1.60 9.8 0 0 140.89 111.06
  Z"
/>
</svg>
