<?xml version="1.0" encoding="UTF-8" standalone="no"?>
<!DOCTYPE svg PUBLIC "-//W3C//DTD SVG 1.1//EN" "http://www.w3.org/Graphics/SVG/1.1/DTD/svg11.dtd">
<svg xmlns="http://www.w3.org/2000/svg" version="1.1" viewBox="0.00 0.00 800.00 800.00">
<rect fill="#e31e25" x="-19.14" y="-58.68" transform="translate(391.62,149.98) rotate(0.2)" width="38.28" height="117.36" rx="18.48"/>
<rect fill="#e31e25" x="-18.88" y="-59.02" transform="translate(538.12,184.16) rotate(30.1)" width="37.76" height="118.04" rx="18.34"/>
<rect fill="#e31e25" x="-18.93" y="-58.94" transform="translate(244.44,184.28) rotate(-30.4)" width="37.86" height="117.88" rx="18.43"/>
<path fill="#888888" d="
  M 349.64 709.88
  C 289.06 699.02 232.44 672.38 181.66 636.84
  C 124.14 596.58 73.44 546.97 30.47 491.77
  C 19.73 477.97 18.97 468.38 29.91 454.20
  Q 84.33 383.69 153.75 329.25
  C 215.70 280.66 290.21 241.88 369.43 233.13
  C 505.24 218.12 633.05 303.20 722.31 396.45
  Q 743.46 418.55 768.44 448.56
  C 780.45 462.98 785.86 474.40 773.16 491.17
  C 744.76 528.66 709.76 562.50 674.45 593.45
  C 585.31 671.58 472.12 731.84 349.64 709.88
  Z
  M 77.02 476.72
  C 139.41 549.35 218.35 618.81 309.78 651.65
  C 474.21 710.70 623.84 593.94 723.60 478.27
  C 726.28 475.16 728.06 474.12 725.07 470.45
  Q 670.09 402.83 603.01 353.96
  C 553.79 318.09 494.41 287.99 435.50 279.97
  C 294.17 260.72 161.66 367.58 77.46 468.28
  C 75.11 471.09 74.62 473.92 77.02 476.72
  Z"
/>
<path fill="#888888" d="
  M 549.87 472.64
  A 148.79 148.79 0.0 0 1 401.08 621.43
  A 148.79 148.79 0.0 0 1 252.29 472.64
  A 148.79 148.79 0.0 0 1 401.08 323.85
  A 148.79 148.79 0.0 0 1 549.87 472.64
  Z
  M 503.27 472.60
  A 102.51 102.51 0.0 0 0 400.76 370.09
  A 102.51 102.51 0.0 0 0 298.25 472.60
  A 102.51 102.51 0.0 0 0 400.76 575.11
  A 102.51 102.51 0.0 0 0 503.27 472.60
  Z"
/>
<circle fill="#e31e25" cx="401.16" cy="472.52" r="40.79"/>
</svg>
