<?xml version="1.0" standalone="no"?>
<!DOCTYPE svg PUBLIC "-//W3C//DTD SVG 20010904//EN"
 "http://www.w3.org/TR/2001/REC-SVG-20010904/DTD/svg10.dtd">
<svg version="1.0" xmlns="http://www.w3.org/2000/svg"
 width="200.000000pt" height="200.000000pt" viewBox="0 0 2000.000000 2000.000000"
 preserveAspectRatio="xMidYMid meet">

<g transform="translate(0.000000,2000.000000) scale(0.100000,-0.100000)"
fill="#04AA82" stroke="none">
<path d="M8112 19217 c-46 -14 -98 -76 -116 -138 -28 -94 -20 -132 48 -219 82
-104 76 -57 76 -645 0 -491 1 -526 18 -543 10 -10 143 -96 296 -192 193 -121
282 -182 292 -201 12 -24 14 -219 14 -1296 0 -741 -4 -1274 -9 -1282 -12 -19
-181 -43 -198 -29 -10 8 -13 110 -13 448 l0 438 34 49 c76 110 95 184 66 258
-49 128 -238 170 -326 73 -61 -66 -83 -171 -50 -240 9 -19 39 -56 66 -83 l50
-49 0 -457 c0 -353 -3 -459 -12 -466 -7 -6 -51 -18 -98 -27 -590 -121 -1182
-354 -1695 -668 -354 -217 -869 -597 -1145 -843 -604 -541 -1106 -1183 -1493
-1910 -118 -221 -106 -208 -181 -200 -150 16 -263 -68 -370 -275 -63 -121 -99
-231 -166 -505 -285 -1160 -349 -2300 -195 -3430 148 -1075 521 -2159 1043
-3030 441 -736 1080 -1439 1787 -1965 668 -498 1380 -854 2140 -1069 602 -171
1194 -241 1855 -220 1119 37 2243 391 3206 1010 150 96 162 105 148 119 -6 6
-72 -9 -184 -41 -1112 -318 -1973 -401 -2749 -264 -83 14 -104 26 -94 51 5 13
13 15 273 39 184 18 450 54 670 90 162 27 292 41 455 50 493 26 970 131 1454
320 1295 505 2449 1454 3163 2600 746 1198 1034 2591 833 4030 -33 241 -64
368 -115 482 -100 220 -220 253 -333 93 -21 -30 -42 -62 -47 -70 -5 -8 -11
-12 -15 -8 -4 3 -22 96 -40 205 -80 477 -214 956 -395 1408 -85 212 -147 344
-290 616 -126 239 -179 326 -366 609 -71 108 -149 232 -173 277 -31 59 -51 85
-72 93 -30 13 -89 73 -89 91 0 5 -26 38 -58 72 -32 34 -90 108 -130 164 -44
62 -103 130 -154 175 -219 196 -299 273 -373 357 -44 51 -118 120 -165 155
-47 35 -125 101 -175 146 -165 152 -343 274 -562 384 -73 36 -120 67 -135 87
-29 39 -71 65 -150 90 -34 12 -173 80 -308 152 -388 207 -582 294 -902 402
-280 96 -571 168 -866 216 -70 11 -133 25 -140 31 -10 9 -12 76 -10 332 3 360
-1 338 84 448 40 51 44 61 44 112 0 131 -73 209 -195 210 -119 0 -205 -68
-213 -168 -5 -65 17 -121 76 -189 l42 -48 0 -328 c0 -277 -2 -330 -15 -341
-11 -9 -55 -8 -207 5 -106 10 -341 20 -523 24 l-330 6 -6 185 c-11 311 -10
1359 1 1379 5 10 138 99 296 196 203 127 292 187 305 209 18 29 19 60 19 567
l0 535 31 30 c57 54 82 108 82 180 0 186 -165 272 -318 166 -112 -78 -112
-211 -1 -330 l46 -49 0 -497 c0 -315 -4 -504 -10 -516 -6 -10 -135 -96 -288
-191 -152 -94 -292 -186 -309 -205 l-33 -34 0 -815 c0 -643 -3 -817 -12 -820
-7 -3 -141 -18 -297 -35 -260 -29 -285 -30 -300 -15 -14 14 -16 145 -21 1330
-3 722 -7 1315 -10 1318 -3 3 -133 85 -288 182 -156 98 -290 188 -298 201 -37
55 -44 816 -10 969 9 39 36 111 61 161 32 64 45 103 45 133 0 129 -148 230
-278 188z m1366 -4499 c6 -8 13 -109 17 -233 7 -190 5 -222 -7 -233 -9 -7 -22
-10 -30 -7 -16 7 -178 392 -178 424 0 15 10 23 38 30 141 35 146 36 160 19z
m759 -15 c20 -8 16 -37 -9 -60 -13 -11 -72 -53 -133 -93 -78 -52 -144 -107
-227 -192 -64 -65 -123 -118 -131 -118 -39 0 -37 24 19 231 31 112 62 215 71
228 l15 24 191 -8 c104 -4 196 -9 204 -12z m-481 -18 c13 -54 -14 -93 -44 -63
-13 13 -17 70 -5 81 15 16 43 6 49 -18z m-544 -22 c28 -32 170 -391 163 -413
-3 -11 -17 -23 -31 -26 -21 -5 -36 4 -92 58 -81 78 -171 145 -276 206 l-78 45
4 49 c3 27 8 51 12 55 8 9 192 41 242 42 27 1 46 -5 56 -16z m1434 -34 c120
-37 152 -64 140 -115 -9 -32 -28 -41 -142 -59 -207 -33 -418 -97 -633 -194
-89 -39 -117 -48 -132 -40 -20 10 -27 59 -9 59 6 0 56 43 111 95 137 128 287
230 384 261 65 21 203 17 281 -7z m598 -60 c267 -70 253 -65 266 -104 14 -44
40 -52 180 -59 222 -10 402 -58 725 -193 226 -94 323 -144 383 -198 33 -30 63
-46 101 -55 66 -16 175 -87 179 -118 5 -32 -20 -36 -61 -12 -22 13 -44 19 -59
15 -15 -4 -87 13 -191 44 -219 66 -435 120 -682 171 -110 22 -229 50 -265 61
-136 43 -264 123 -357 222 -54 56 -62 74 -43 93 8 8 -43 25 -167 58 -267 71
-260 68 -248 106 4 12 15 20 27 20 12 0 107 -23 212 -51z m-2523 2 c22 -22 29
-39 29 -68 0 -38 -22 -83 -41 -83 -5 0 -41 21 -79 46 -82 55 -91 82 -37 114
47 29 93 26 128 -9z m-656 -122 c0 -22 -13 -28 -165 -81 -189 -65 -210 -68
-210 -35 0 21 16 29 178 85 97 33 182 59 187 58 6 -1 10 -14 10 -27z m278 20
c49 -25 127 -83 127 -95 0 -21 -27 -24 -195 -24 -134 0 -165 3 -175 15 -10 12
-10 19 -1 28 8 8 194 82 219 86 2 1 13 -4 25 -10z m725 -90 c136 -91 162 -115
162 -151 0 -45 -26 -50 -109 -22 -157 53 -231 111 -231 182 0 84 41 82 178 -9z
m2140 30 c92 -23 199 -79 263 -137 63 -57 76 -79 56 -99 -13 -13 -26 -13 -108
1 -144 24 -247 35 -395 42 -107 6 -137 10 -142 22 -6 17 71 170 97 190 20 17
123 8 229 -19z m-484 -39 c35 -35 -153 -116 -363 -154 -95 -18 -209 -21 -231
-6 -13 9 -10 15 17 38 97 83 525 174 577 122z m-2176 -80 c100 -13 149 -27
173 -51 23 -23 24 -31 2 -58 -16 -20 -32 -23 -183 -32 -235 -14 -547 -61 -829
-124 -109 -25 -131 -22 -131 14 0 51 234 204 355 231 104 24 488 36 613 20z
m-894 -63 c10 -16 -4 -33 -104 -128 -163 -156 -162 -155 -301 -195 -294 -83
-721 -238 -998 -363 -122 -54 -148 -60 -158 -35 -14 37 109 131 397 304 376
227 713 365 1025 421 116 20 124 20 139 -4z m2211 -57 c143 -21 256 -75 290
-139 12 -23 15 -65 15 -188 0 -172 -4 -187 -62 -233 -63 -49 -236 -100 -343
-100 -61 0 -62 4 -69 332 -9 371 -17 354 169 328z m-351 -16 c14 -13 16 -52
15 -282 -1 -284 -7 -368 -30 -383 -8 -5 -59 -9 -114 -8 -104 0 -161 13 -197
46 -42 37 -45 64 -39 319 7 269 5 265 81 305 48 25 260 28 284 3z m826 -10
c13 -12 12 -17 -5 -34 -31 -30 -76 -35 -105 -12 -24 20 -24 21 -6 40 29 33 84
36 116 6z m779 0 c68 -8 192 -18 275 -23 209 -12 293 -47 350 -144 29 -49 50
-131 41 -164 -8 -33 -32 -30 -221 22 -209 59 -495 123 -754 170 -117 21 -211
43 -220 51 -21 20 -4 44 51 72 87 43 212 48 478 16z m-2391 -84 c6 -49 -12
-57 -258 -119 -361 -90 -594 -164 -930 -298 -121 -48 -168 -62 -180 -55 -33
22 4 194 59 270 37 50 55 56 356 117 323 65 713 115 875 112 72 -2 75 -3 78
-27z m3592 -105 c246 -62 586 -164 788 -237 100 -36 105 -52 32 -104 -27 -20
-50 -39 -50 -43 0 -20 16 -18 58 6 88 52 164 34 224 -53 49 -72 48 -76 -38
-164 -93 -96 -76 -107 24 -15 38 36 77 65 86 65 21 0 26 -12 87 -219 45 -153
49 -175 36 -188 -13 -14 -46 3 -278 139 -281 164 -298 179 -245 214 20 13 38
15 81 9 71 -8 71 5 0 51 -45 28 -60 46 -79 88 -26 58 -83 129 -97 120 -11 -6
-49 -79 -49 -92 0 -6 15 -13 34 -16 38 -7 96 -65 96 -95 0 -39 -80 -86 -128
-75 -56 13 -238 97 -264 122 -37 35 -45 81 -22 129 19 38 20 38 89 43 58 4 70
8 73 24 4 17 0 18 -35 10 -72 -17 -134 -8 -217 30 -90 41 -97 42 -132 19 -15
-9 -47 -17 -77 -17 -45 -1 -52 -4 -52 -21 0 -18 11 -21 90 -32 50 -6 113 -12
140 -12 64 -1 95 -22 95 -63 0 -39 -25 -68 -59 -68 -14 0 -108 39 -209 87
-180 87 -182 88 -180 118 4 41 -32 48 -52 10 -24 -44 -39 -45 -130 -11 l-85
31 -23 70 c-12 39 -33 105 -47 148 -35 114 -37 114 187 67 101 -21 248 -55
328 -75z m-3350 20 c20 -40 21 -285 1 -332 -18 -43 -38 -42 -59 5 -22 49 -24
280 -3 330 17 40 40 39 61 -3z m1758 -5 c302 -52 564 -111 867 -196 195 -54
213 -61 220 -85 8 -24 -70 -272 -90 -289 -26 -22 -56 -14 -215 58 -297 133
-734 298 -1014 383 -79 24 -112 39 -123 56 -21 31 -10 68 24 81 74 29 127 27
331 -8z m-2006 -37 c23 -20 23 -64 1 -92 -10 -11 -106 -61 -213 -110 -317
-144 -583 -282 -876 -457 -81 -49 -151 -84 -167 -84 -14 0 -36 10 -47 23 -36
38 -93 164 -98 216 -4 43 -1 53 20 74 61 61 695 279 1168 402 192 50 188 50
212 28z m-1397 -85 c3 -7 -14 -80 -38 -163 l-42 -150 -375 -189 -375 -189 -51
32 c-113 69 -256 99 -389 82 -46 -7 -101 -18 -122 -25 l-38 -13 0 -74 0 -74
31 -3 c19 -2 40 5 58 19 26 21 28 25 21 76 -5 45 -4 54 11 60 9 3 74 2 145 -4
106 -9 138 -15 183 -37 58 -28 78 -58 55 -82 -8 -7 -61 -31 -119 -52 -102 -38
-105 -40 -110 -73 -5 -31 -12 -37 -88 -75 -46 -23 -105 -61 -130 -86 -104 -99
-266 -218 -297 -218 -8 0 -18 7 -22 16 -7 18 35 160 51 173 6 5 37 11 69 14
57 6 129 38 157 72 23 28 4 26 -55 -5 -63 -33 -106 -38 -129 -14 -23 23 -20
44 17 99 26 38 35 64 39 111 10 111 77 202 203 274 174 99 703 314 1100 446
197 65 232 73 240 52z m3334 -120 c275 -95 780 -295 921 -366 74 -37 78 -63
18 -128 -55 -60 -156 -137 -224 -170 l-54 -26 -197 129 c-230 151 -375 237
-598 356 -88 46 -170 94 -182 105 -45 41 -21 141 40 167 36 15 45 13 276 -67z
m-1899 -47 c25 -38 40 -71 40 -90 0 -27 -9 -36 -76 -78 -135 -85 -395 -269
-537 -381 -145 -115 -173 -128 -278 -138 -35 -3 -94 -15 -131 -26 -84 -27 -96
-19 -100 60 -3 55 -4 57 -29 54 -30 -4 -79 32 -79 58 0 24 21 38 235 157 285
159 857 440 897 442 10 1 34 -23 58 -58z m3409 -109 c153 -56 268 -104 275
-114 8 -13 5 -28 -13 -63 -23 -45 -24 -66 -6 -136 6 -23 0 -30 -45 -63 -42
-30 -49 -40 -40 -51 7 -8 17 -12 24 -8 40 25 105 76 109 86 2 6 -3 37 -12 68
-14 53 -13 59 3 83 29 45 60 50 140 24 86 -28 298 -131 541 -263 197 -107 212
-116 300 -191 33 -28 72 -54 87 -57 37 -10 40 -30 23 -128 -35 -202 -138 -412
-187 -383 -7 4 -76 53 -153 109 -180 131 -416 287 -625 413 -90 55 -166 104
-168 111 -2 7 11 11 37 11 46 0 53 16 22 44 -15 13 -36 16 -112 14 l-94 -2
-243 128 c-134 71 -246 135 -249 143 -3 8 11 69 32 136 48 156 61 187 77 187
7 -1 132 -45 277 -98z m-1659 -101 c340 -182 770 -459 770 -497 0 -19 -340
-184 -379 -184 -15 0 -34 6 -43 13 -52 40 -648 684 -648 699 0 11 12 30 26 45
22 22 31 24 67 19 24 -4 114 -45 207 -95z m-1572 63 c13 -9 22 -26 22 -41 0
-31 -583 -818 -615 -830 -11 -4 -27 -6 -35 -4 -27 4 -354 132 -367 143 -38 32
-8 62 297 292 303 228 632 456 660 456 8 0 26 -7 38 -16z m4652 -47 l75 -43
-2 -42 c-1 -23 0 -42 2 -42 2 0 15 11 29 25 55 55 143 11 153 -76 6 -54 -15
-101 -76 -171 -46 -52 -49 -58 -22 -58 12 0 47 38 101 110 45 61 85 110 89
110 3 0 29 -14 58 -30 70 -40 174 -139 214 -203 18 -29 64 -85 103 -125 l71
-73 -43 -37 c-30 -26 -42 -45 -42 -63 0 -32 -26 -56 -65 -61 -25 -2 -32 -10
-45 -48 -12 -33 -21 -45 -36 -44 -10 0 -121 68 -245 151 l-225 151 -42 154
c-35 129 -40 159 -32 188 9 33 8 37 -39 85 -54 56 -76 93 -86 148 -6 32 -5 37
11 37 11 0 53 -20 94 -43z m-3491 18 c50 -25 658 -674 675 -720 8 -19 6 -29
-5 -41 -9 -8 -99 -42 -202 -74 -201 -64 -220 -65 -251 -18 -38 59 -367 781
-364 801 3 23 69 67 101 67 10 0 31 -7 46 -15z m-936 -62 c15 -8 30 -20 34
-28 4 -12 -174 -544 -269 -801 -28 -78 -32 -79 -269 -34 -195 38 -229 50 -229
81 0 20 371 516 525 702 89 107 127 122 208 80z m-1846 -131 c29 -73 50 -139
47 -147 -12 -30 -103 -50 -235 -50 -122 0 -127 -1 -170 -29 l-44 -30 -133 11
c-73 6 -139 17 -147 23 -24 20 -17 49 18 71 78 49 574 289 592 287 15 -2 31
-33 72 -136z m2571 116 c22 -27 362 -771 362 -792 0 -45 -23 -52 -275 -80
-282 -31 -293 -31 -317 -9 -25 23 -26 205 -1 258 15 31 15 40 4 68 -26 66 -27
63 47 101 81 41 91 52 68 74 -12 12 -34 17 -76 17 -32 0 -63 5 -68 10 -5 6
-15 72 -22 148 -15 162 -14 164 78 192 31 9 62 18 67 20 27 9 124 4 133 -7z
m-345 -35 c16 -15 17 -34 15 -182 l-3 -166 -180 -47 c-202 -53 -230 -56 -244
-29 -13 24 111 403 142 434 18 18 28 19 136 13 85 -5 120 -11 134 -23z m2422
-226 c226 -115 236 -123 250 -189 6 -32 46 -48 124 -48 54 0 65 -5 226 -101
94 -55 185 -112 203 -125 35 -27 42 -63 17 -84 -25 -21 -18 -25 48 -26 109 -1
216 -57 435 -226 117 -91 125 -109 60 -137 -49 -21 -79 -52 -132 -132 -51 -80
-107 -141 -211 -231 -99 -86 -116 -92 -180 -55 -47 27 -82 76 -90 126 -14 87
-6 79 -105 95 -45 8 -135 78 -197 154 -29 36 -72 74 -110 96 -70 42 -79 51
-88 89 -9 33 -40 57 -75 57 -18 0 -40 15 -70 46 -25 26 -69 62 -97 81 -54 35
-68 64 -37 81 9 5 63 1 137 -10 67 -9 130 -18 140 -18 34 0 11 25 -79 85 -105
70 -134 115 -134 202 0 50 1 53 25 53 37 0 74 -22 125 -75 25 -26 71 -65 102
-86 62 -42 78 -64 78 -102 0 -13 12 -34 26 -48 32 -29 54 -78 54 -119 0 -27 3
-30 31 -30 65 0 69 9 69 133 -1 81 -5 117 -15 131 -8 10 -47 29 -86 42 -66 22
-245 120 -358 196 -53 36 -73 33 -83 -12 -12 -53 1 -128 34 -202 17 -36 27
-71 24 -76 -10 -16 -105 -35 -148 -29 -57 8 -112 48 -137 100 -20 41 -25 45
-70 51 -90 12 -223 101 -208 140 3 8 49 47 101 86 101 75 138 123 150 193 4
20 12 37 19 37 7 -1 111 -51 232 -113z m-6267 1 c27 -27 10 -54 -95 -160
l-108 -108 37 0 c26 0 41 -6 52 -22 18 -25 13 -38 -15 -38 -25 0 -25 -30 1
-37 37 -10 18 -63 -23 -63 -10 0 -32 13 -48 30 -26 25 -29 34 -23 65 5 26 3
35 -7 35 -23 0 -268 -261 -324 -345 -52 -79 -145 -255 -145 -275 0 -28 23 -3
48 53 35 76 71 120 126 152 33 19 49 38 70 84 16 35 46 77 72 101 l45 41 37
-22 c83 -51 152 -100 152 -110 0 -20 -91 -118 -137 -148 -57 -38 -101 -47
-148 -30 -35 13 -38 12 -56 -10 -25 -30 -24 -58 1 -71 11 -6 20 -16 20 -23 0
-26 -77 -86 -160 -127 -99 -48 -147 -90 -156 -137 -5 -24 -21 -46 -59 -78 -66
-57 -88 -59 -83 -8 3 38 3 38 -50 52 -32 8 -56 11 -62 5 -12 -12 -4 -23 43
-57 34 -26 37 -32 37 -77 0 -55 -29 -99 -79 -120 -22 -9 -32 -22 -40 -55 -11
-42 -50 -87 -88 -99 -10 -3 -26 -26 -37 -51 -21 -51 -106 -150 -138 -161 -15
-4 -27 1 -44 22 l-23 29 -1 -45 c0 -76 -18 -117 -86 -198 -36 -42 -92 -117
-124 -167 -87 -133 -89 -135 -114 -135 -37 0 -59 34 -64 99 -4 56 -2 63 71
202 218 421 500 839 812 1203 270 314 680 707 826 791 49 28 69 31 87 13z
m1535 -84 c26 -5 37 -11 35 -21 -2 -9 -75 -59 -163 -112 -341 -207 -676 -455
-923 -684 -35 -32 -70 -57 -79 -55 -9 2 -25 16 -37 31 -35 47 -27 106 26 212
41 80 46 99 49 170 l4 80 -77 14 c-62 10 -78 17 -78 30 0 13 78 64 262 171
l262 153 166 -27 c91 -14 177 -26 191 -26 15 0 52 11 84 25 94 42 183 54 278
39z m670 -136 c29 -15 21 -47 -18 -64 -41 -17 -66 -18 -99 -3 -49 23 -41 61
18 78 32 9 68 5 99 -11z m1494 0 c29 -28 29 -51 -2 -104 -23 -39 -78 -84 -102
-84 -6 0 -43 19 -82 41 -39 23 -74 39 -77 36 -10 -10 57 -76 100 -96 77 -38
133 -23 162 42 31 67 61 97 99 97 55 0 68 -28 89 -184 26 -192 54 -176 -300
-176 l-284 0 -16 25 c-16 25 -15 30 50 188 37 89 74 172 82 184 13 21 16 21
49 8 51 -22 85 -18 129 15 47 36 72 38 103 8z m-1812 -28 c68 -26 138 -72 160
-107 15 -22 14 -25 -27 -63 -51 -47 -68 -50 -68 -12 0 58 -41 68 -86 21 -16
-17 -48 -40 -71 -50 -45 -19 -51 -27 -31 -47 18 -18 46 -14 53 8 11 35 81 39
73 4 -5 -25 -685 -710 -722 -728 -19 -9 -65 -22 -103 -29 -52 -10 -80 -22
-118 -52 -86 -66 -192 -108 -327 -130 -28 -4 -38 -11 -38 -24 0 -24 19 -31 83
-31 64 0 126 28 235 104 114 80 182 105 195 72 8 -19 -302 -390 -328 -394 -20
-3 -335 212 -342 234 -2 5 20 21 49 35 29 13 54 30 56 36 7 24 -29 26 -68 4
-21 -11 -48 -21 -60 -21 -29 0 -190 136 -190 160 0 55 1043 885 1230 979 48
24 79 34 165 55 11 3 65 3 120 2 74 -3 116 -9 160 -26z m3862 -51 c42 -34 101
-75 130 -91 42 -24 59 -41 80 -82 14 -28 39 -66 54 -84 16 -18 29 -37 29 -42
0 -26 -181 -90 -257 -90 -34 0 -51 -8 -97 -46 -31 -25 -56 -49 -56 -54 0 -23
23 -18 65 15 26 19 50 35 53 35 36 1 164 37 237 67 155 63 243 55 296 -29 15
-25 19 -43 15 -75 -7 -53 14 -68 83 -59 40 5 52 2 80 -18 17 -13 44 -40 59
-60 15 -19 61 -59 102 -88 41 -28 124 -100 185 -158 60 -58 132 -123 159 -145
48 -39 106 -116 106 -142 0 -15 -112 -95 -240 -171 -172 -102 -447 -212 -530
-212 -26 0 -48 8 -68 25 -29 24 -157 208 -265 380 -31 50 -77 115 -102 145
-25 30 -51 73 -57 94 -8 27 -23 45 -45 59 -41 24 -63 64 -63 112 0 34 -3 38
-51 59 -42 18 -55 31 -73 67 -15 31 -32 49 -58 62 -58 27 -45 70 18 60 39 -6
64 9 64 40 0 30 -29 57 -61 57 -24 0 -31 -7 -48 -46 -11 -25 -25 -43 -31 -39
-26 16 -210 270 -210 290 0 30 17 42 151 114 74 38 123 59 134 55 14 -6 16
-18 10 -103 -6 -76 -4 -99 6 -107 8 -6 54 -23 104 -39 65 -20 103 -26 139 -22
80 7 93 51 29 94 -18 12 -24 10 -58 -17 -48 -38 -92 -40 -133 -5 -40 33 -55
75 -50 134 6 58 42 121 69 121 11 0 54 -27 96 -61z m3082 -74 c115 -111 174
-187 196 -251 10 -30 19 -40 38 -42 48 -6 342 -335 398 -444 16 -31 54 -85 85
-120 149 -166 224 -295 224 -382 0 -58 -27 -106 -59 -106 -10 0 -68 55 -134
128 -63 70 -212 222 -330 339 -161 159 -226 230 -258 284 -42 68 -47 73 -100
89 -32 9 -77 31 -102 47 -90 61 -262 206 -271 229 -9 21 -1 33 72 107 86 89
102 116 102 176 0 75 9 71 139 -54z m-730 -42 c202 -122 328 -211 415 -293 44
-42 101 -88 126 -102 63 -37 114 -91 106 -115 -3 -10 -32 -32 -63 -47 -63 -31
-193 -112 -193 -121 0 -3 17 -3 38 1 32 5 42 1 79 -30 64 -56 79 -48 38 19
-35 56 -32 71 16 96 48 24 84 21 130 -12 36 -25 47 -19 30 17 -24 54 7 41 104
-43 209 -181 686 -669 723 -740 22 -41 5 -81 -68 -158 -37 -39 -71 -82 -75
-96 -12 -38 -88 -149 -102 -149 -7 0 -25 18 -39 40 -29 43 -47 47 -52 12 -3
-21 23 -54 61 -77 14 -9 11 -18 -29 -78 -37 -57 -48 -68 -69 -65 -19 2 -77 68
-240 268 -208 257 -215 266 -215 310 0 65 -19 86 -81 92 -50 5 -53 7 -193 145
-77 76 -171 165 -208 196 -47 41 -68 66 -70 85 -2 18 -12 30 -27 37 -78 32
-108 54 -144 108 -21 31 -46 57 -55 57 -28 1 -114 53 -136 83 -25 33 -17 50
39 87 l38 25 -84 3 c-45 2 -89 8 -96 14 -21 17 -15 48 21 123 46 93 72 178 87
278 13 87 22 107 47 107 8 0 72 -34 141 -77z m-8333 -18 c17 -22 40 -39 64
-45 41 -11 55 -31 37 -49 -17 -17 -36 -13 -69 14 -23 19 -41 25 -78 25 l-49 0
9 31 c20 68 47 75 86 24z m2593 -51 c108 -42 202 -80 209 -86 27 -23 7 -64
-131 -275 -232 -353 -408 -648 -602 -1008 -65 -121 -125 -226 -134 -232 -24
-21 -63 -15 -178 23 -228 76 -617 241 -666 283 -10 8 -17 24 -15 35 4 27 377
452 408 464 14 6 38 13 55 17 16 4 48 26 71 49 28 29 57 48 95 60 58 19 159
80 159 96 0 6 -20 19 -45 30 -25 11 -45 24 -45 30 0 17 29 23 45 10 11 -9 26
6 85 84 40 55 91 111 119 131 28 20 63 59 84 93 40 65 94 118 154 153 22 12
54 44 71 71 18 26 40 48 49 48 9 0 105 -34 212 -76z m-2007 -15 c76 -39 76
-77 4 -237 -77 -170 -126 -305 -126 -347 0 -27 -8 -44 -29 -66 -16 -16 -34
-29 -40 -29 -31 0 -133 186 -174 315 -34 109 -42 168 -27 205 13 30 120 114
200 157 38 20 55 23 107 19 35 -3 73 -10 85 -17z m4819 -1 c31 -26 199 -248
199 -263 0 -9 -16 -25 -35 -36 -55 -33 -41 -69 28 -69 31 0 52 -11 115 -59 97
-73 161 -142 169 -181 3 -19 16 -36 32 -45 14 -7 38 -26 52 -42 37 -40 139
-201 139 -219 0 -56 -63 -114 -124 -114 -35 0 -99 -27 -92 -38 3 -5 69 3 146
19 94 19 148 26 163 20 27 -11 261 -346 252 -362 -4 -6 -23 -9 -44 -6 -30 3
-46 -3 -97 -40 -77 -54 -159 -91 -244 -109 -63 -13 -66 -13 -82 7 -23 27 -23
41 2 72 11 14 20 28 20 31 0 15 -33 3 -60 -21 -23 -21 -33 -40 -37 -73 -3 -25
-12 -52 -20 -61 -8 -10 -77 -33 -165 -55 l-151 -37 -19 23 c-12 15 -18 39 -18
71 l0 49 -38 0 c-63 0 -63 0 -188 352 -40 114 -83 227 -95 250 -52 102 -47
128 22 128 63 0 114 21 162 68 52 51 50 72 -9 72 -41 0 -50 -5 -90 -45 -52
-54 -82 -58 -125 -16 -34 35 -36 50 -9 83 27 36 128 59 275 64 131 5 152 13
186 67 44 72 -4 119 -55 52 -30 -39 -73 -65 -109 -65 -27 0 -37 16 -37 59 0
15 -9 36 -20 46 -29 26 -139 53 -264 65 -61 6 -121 13 -133 16 -29 6 -77 76
-96 140 -26 88 -24 90 213 156 214 59 256 66 281 46z m-2241 -144 c236 -42
250 -47 250 -73 0 -11 -29 -116 -64 -233 -97 -322 -178 -619 -266 -973 -44
-176 -86 -331 -92 -343 -43 -84 -171 -53 -198 47 -9 35 -54 81 -122 125 -23
15 -33 16 -61 7 -35 -12 -60 -34 -69 -61 -5 -13 5 -15 51 -15 47 0 66 -6 108
-33 57 -37 71 -59 50 -80 -12 -12 -28 -10 -113 10 -93 23 -99 26 -102 52 l-3
27 -25 -27 c-23 -23 -30 -26 -69 -20 -77 10 -379 77 -405 89 -54 26 -46 45
138 346 69 113 164 278 210 366 109 205 171 309 354 587 146 221 174 253 213
242 6 -1 102 -19 215 -40z m1639 19 c18 -4 33 -27 63 -90 40 -88 42 -115 9
-133 -14 -7 -41 0 -107 27 -82 34 -96 37 -179 35 -84 -1 -144 -13 -314 -64
-41 -12 -44 -11 -62 11 -23 28 -24 59 -5 106 16 38 23 40 166 50 85 6 293 37
360 54 19 5 37 9 40 10 3 0 16 -2 29 -6z m-894 -89 c110 -4 206 -11 213 -17
13 -11 17 -144 4 -164 -4 -7 -71 -50 -147 -96 l-140 -83 -18 -55 c-26 -83 -94
-159 -252 -281 -171 -132 -262 -219 -295 -284 -21 -41 -25 -63 -25 -134 0 -72
4 -94 29 -147 58 -125 97 -134 234 -49 49 31 99 56 110 56 24 0 69 -51 78 -88
4 -15 22 -44 40 -65 39 -42 43 -78 14 -107 -59 -59 -149 26 -109 102 16 30 -3
46 -37 28 -22 -12 -25 -19 -20 -45 16 -82 18 -118 6 -159 -22 -78 -13 -77
-289 -55 -181 14 -248 22 -259 33 -13 13 12 112 198 788 226 822 225 818 243
831 7 4 59 6 117 3 58 -3 195 -9 305 -12z m-3745 -124 c42 -130 79 -215 139
-318 62 -107 56 -140 -30 -156 -48 -9 -81 -35 -128 -104 -65 -95 -300 -371
-401 -472 -63 -63 -116 -106 -156 -126 l-59 -30 -5 -55 c-3 -30 -9 -61 -15
-69 -34 -54 -210 -283 -221 -287 -14 -5 -113 24 -128 38 -5 5 7 44 29 94 29
65 36 88 27 97 -6 6 -14 9 -18 6 -12 -13 -82 -193 -77 -200 2 -5 36 -24 74
-43 38 -20 69 -40 69 -45 0 -17 -112 -180 -124 -180 -6 0 -31 14 -55 30 -44
30 -118 56 -128 46 -9 -8 18 -36 34 -36 7 0 32 -9 54 -20 47 -25 65 -61 49
-101 -14 -33 -46 -48 -119 -55 l-56 -6 -95 98 c-103 106 -167 191 -223 294
l-36 65 19 42 c10 23 33 54 50 70 18 15 40 44 50 63 32 61 103 150 121 150 34
0 39 -66 9 -125 -24 -47 -24 -45 -5 -45 17 0 38 37 53 94 10 33 8 44 -11 76
-20 36 -21 40 -6 72 30 61 260 342 373 453 153 151 253 198 306 145 16 -16 20
-33 20 -82 0 -75 26 -135 75 -172 18 -14 36 -26 38 -26 3 0 17 20 31 44 20 35
33 45 61 50 56 11 75 37 75 100 0 47 4 57 27 76 14 11 22 24 17 28 -5 4 -25
22 -46 41 -47 43 -60 35 -43 -29 l13 -50 -44 -59 c-90 -119 -117 -138 -158
-108 -19 14 -20 27 -10 104 8 63 -9 95 -61 120 -38 18 -43 37 -20 70 13 19 20
21 41 13 51 -20 90 -12 119 22 19 22 24 37 20 52 -18 56 -16 71 9 95 24 23 26
23 51 7 14 -10 36 -16 48 -14 19 3 23 12 29 63 12 90 63 145 150 159 37 6 45
4 61 -16 19 -22 19 -56 1 -103 -7 -19 -7 -20 13 -2 31 27 46 71 39 112 -8 38
-30 55 -49 36 -6 -6 -19 -11 -30 -11 -33 0 -17 43 20 52 27 7 34 15 43 49 10
35 14 40 37 37 23 -3 29 -13 63 -118z m4541 -5 c45 -21 98 -37 134 -41 70 -8
96 -27 131 -96 24 -48 31 -102 15 -126 -5 -8 -23 -17 -41 -21 -60 -12 -48 -31
20 -31 72 0 102 -22 120 -90 6 -23 48 -133 92 -244 103 -256 188 -499 188
-537 0 -16 9 -46 20 -66 21 -39 26 -88 12 -111 -5 -7 -70 -24 -145 -38 -157
-30 -157 -30 -182 47 -25 75 -21 79 85 79 49 0 90 4 90 9 0 25 -102 29 -158 5
-62 -25 -92 -61 -92 -109 0 -46 -17 -68 -63 -79 -62 -15 -217 -23 -301 -16
-79 6 -97 4 -155 -16 -36 -13 -83 -24 -103 -24 -35 0 -38 2 -38 28 0 17 -8 32
-21 40 -42 27 -51 73 -70 392 -10 168 -22 369 -25 446 l-7 142 26 17 c26 16
29 16 68 -3 l40 -20 57 29 c63 34 115 36 120 6 8 -41 -9 -66 -75 -111 -95 -63
-118 -101 -118 -190 1 -73 18 -120 69 -189 45 -61 75 -63 139 -10 32 26 57 30
57 9 0 -23 29 -46 59 -46 18 0 37 10 53 29 25 27 31 29 137 36 112 7 141 18
141 50 0 34 -30 45 -124 45 -103 0 -182 -17 -256 -56 -41 -21 -60 -26 -99 -22
-76 8 -138 68 -148 147 -5 39 -3 43 63 114 38 41 92 113 119 160 53 91 74 107
142 107 19 0 52 -9 75 -21 53 -27 66 -16 49 41 -7 23 -18 43 -26 46 -7 3 -36
-6 -64 -21 -58 -29 -186 -50 -372 -61 l-116 -7 -6 44 c-3 24 -9 91 -13 149 -5
89 -4 108 9 119 20 16 331 98 378 100 23 1 65 -12 110 -34z m520 -65 c86 -11
160 -20 163 -20 13 0 5 -44 -14 -75 -32 -52 -79 -69 -173 -62 -49 4 -91 14
-111 25 -44 26 -76 77 -76 123 0 36 1 38 28 34 15 -3 97 -14 183 -25z m2822
-76 c29 -14 74 -49 101 -78 27 -28 69 -62 95 -76 41 -22 52 -37 100 -127 51
-98 55 -103 94 -114 104 -28 154 -67 369 -286 81 -82 108 -109 172 -169 85
-80 78 -96 -61 -149 -40 -16 -73 -32 -73 -37 0 -16 26 -8 109 32 45 22 93 40
105 40 18 0 48 -30 123 -122 147 -181 146 -180 72 -250 -29 -27 -49 -51 -46
-54 3 -3 43 6 89 20 l83 26 32 -38 c54 -61 53 -70 -8 -122 -30 -25 -128 -117
-219 -205 -108 -105 -198 -182 -259 -224 -100 -66 -221 -131 -245 -131 -21 0
-74 77 -98 143 -13 36 -31 65 -48 77 -43 30 -63 84 -56 145 l6 51 -64 42 c-81
53 -151 129 -199 218 -38 70 -65 104 -126 157 -60 53 -23 119 47 83 46 -24 52
-20 52 29 0 34 -5 47 -19 55 -40 21 -108 4 -140 -34 -23 -27 -37 -18 -85 54
-25 38 -84 110 -131 159 -47 50 -85 94 -85 99 0 25 43 46 215 102 105 34 194
66 199 71 25 23 -12 18 -105 -15 -56 -20 -108 -35 -115 -32 -8 3 -32 41 -54
86 -40 79 -57 93 -79 66 -9 -11 -3 -28 29 -80 51 -84 51 -102 3 -115 -21 -6
-60 -17 -87 -25 -27 -8 -53 -13 -56 -11 -20 12 -220 265 -220 278 0 8 35 44
78 80 80 68 186 175 285 290 50 57 128 115 160 117 4 0 31 -12 60 -26z m-3921
4 c14 -11 17 -47 21 -238 4 -164 10 -243 22 -290 32 -126 21 -223 -29 -250
-49 -26 -89 13 -60 58 16 24 16 26 -2 39 -22 17 -64 13 -264 -23 -158 -29
-170 -32 -170 -45 0 -6 8 -8 18 -5 67 19 221 46 266 46 62 0 106 -13 106 -32
0 -7 -37 -49 -81 -94 -76 -76 -90 -104 -54 -104 8 0 24 8 35 18 11 9 42 19 68
22 47 5 47 5 50 45 2 22 7 44 12 49 12 12 80 -3 87 -19 3 -8 -11 -36 -30 -62
-82 -114 -126 -243 -82 -243 19 0 81 56 102 91 38 64 60 16 70 -152 4 -71 2
-112 -6 -127 -21 -40 -234 -87 -361 -80 -51 3 -55 5 -55 28 0 21 11 30 62 55
80 39 103 61 103 98 0 29 -1 29 -22 13 -41 -29 -82 -45 -98 -36 -9 5 -24 35
-34 67 -10 32 -30 78 -44 103 -35 61 -111 140 -134 140 -32 0 -87 -28 -150
-75 -64 -48 -90 -54 -125 -30 -42 30 -74 177 -54 252 23 83 135 207 386 425
66 58 153 140 193 182 75 82 146 142 197 169 37 20 37 20 57 5z m-2448 -117
c16 -26 -34 -65 -56 -43 -17 17 1 52 27 52 13 0 26 -4 29 -9z m-1144 -333
c123 -116 149 -150 137 -181 -12 -31 -230 -317 -242 -317 -7 0 -35 15 -61 33
-35 24 -58 50 -79 92 -27 52 -30 68 -29 144 1 112 39 298 67 329 41 44 66 32
207 -100z m-282 -60 c2 -15 -4 -50 -12 -79 -20 -67 -21 -179 -1 -226 9 -20 27
-52 41 -71 27 -35 123 -102 147 -102 7 0 70 71 139 158 69 86 135 166 147 176
21 19 22 18 125 -50 58 -38 107 -77 110 -87 3 -11 -22 -53 -69 -117 -336 -450
-590 -860 -837 -1350 -71 -140 -134 -260 -140 -267 -18 -22 -40 -15 -133 38
-208 118 -615 410 -615 441 0 7 12 29 27 51 32 46 26 63 -31 90 -39 19 -39 20
1 75 20 27 30 32 65 32 34 0 39 3 33 18 -60 145 83 294 230 238 40 -16 95 -65
95 -85 0 -4 -66 -43 -146 -87 -120 -65 -141 -80 -119 -82 16 -2 53 9 88 27
107 52 104 26 -14 -131 -56 -73 -91 -130 -91 -144 0 -40 19 -54 79 -54 64 0
105 -19 130 -60 20 -35 33 -37 57 -11 17 19 17 21 0 50 -15 25 -16 35 -6 69
22 72 16 95 -33 140 -49 45 -58 81 -28 114 28 32 122 20 185 -24 31 -21 38
-22 38 -5 0 7 -32 29 -71 47 -90 44 -97 57 -67 118 31 63 82 92 129 75 18 -7
35 -10 38 -7 10 10 -29 31 -69 38 -45 7 -51 23 -20 51 28 25 45 86 32 112 -6
11 -42 32 -81 47 -54 21 -71 32 -71 47 0 34 27 75 83 125 34 30 65 71 82 107
31 62 122 157 152 157 10 0 27 -7 37 -15 37 -28 52 18 16 50 -11 10 -20 27
-20 38 0 11 66 87 163 188 169 175 198 195 205 137z m7165 -30 c9 -7 26 -40
38 -73 14 -39 37 -75 65 -104 24 -24 44 -50 44 -57 0 -8 -45 -27 -117 -49 -65
-20 -131 -40 -147 -46 -64 -20 -70 -16 -116 86 -36 79 -41 99 -32 119 5 12 50
48 99 79 90 57 134 69 166 45z m2737 -270 c89 -142 269 -497 270 -530 0 -16
-5 -28 -12 -28 -18 0 -153 186 -183 252 -13 29 -27 73 -31 97 -6 39 -11 45
-49 62 -24 11 -57 35 -74 54 -26 31 -31 44 -31 90 0 61 13 105 33 105 7 0 42
-46 77 -102z m-3025 15 c49 -74 55 -97 27 -112 -42 -22 -304 -81 -336 -76 -24
5 -38 1 -56 -15 l-25 -21 69 6 c118 12 543 124 723 191 107 40 103 41 182 -39
41 -43 52 -59 46 -76 -7 -24 2 -21 -530 -167 -214 -58 -392 -108 -394 -110 -3
-2 0 -8 5 -14 5 -5 193 42 478 121 259 71 477 127 485 124 9 -3 129 -152 266
-330 187 -243 250 -331 250 -352 0 -23 -9 -32 -55 -56 -48 -25 -62 -28 -115
-23 -33 3 -73 8 -90 11 -27 6 -32 3 -49 -28 -16 -32 -51 -56 -100 -72 -13 -4
-16 -9 -9 -16 6 -6 22 -4 46 6 20 8 54 15 75 15 23 0 92 22 175 55 75 30 145
55 155 55 21 0 113 -145 105 -166 -7 -19 -361 -131 -751 -238 -401 -109 -428
-112 -457 -56 -23 44 -18 73 15 105 22 21 30 38 30 62 0 29 -5 36 -34 48 -26
11 -42 12 -72 4 -34 -10 -40 -9 -56 11 -25 31 -32 64 -20 99 10 27 8 29 -19
35 -33 6 -53 34 -152 221 -37 71 -79 144 -93 162 -30 39 -74 131 -74 155 0 9
-21 36 -46 60 -49 45 -74 90 -74 133 0 17 -12 38 -35 59 -48 45 -47 77 2 111
47 31 90 32 136 1 19 -13 38 -22 41 -18 3 3 6 24 6 47 0 24 6 47 13 54 15 12
234 98 254 100 7 1 33 -29 58 -66z m-5949 -114 c157 -75 418 -181 576 -234 65
-22 120 -45 122 -52 3 -7 -48 -124 -113 -260 -239 -500 -423 -947 -596 -1446
-38 -109 -53 -141 -71 -149 -19 -9 -51 -1 -176 42 -222 77 -524 199 -730 295
-217 101 -228 108 -228 141 0 13 36 99 79 189 195 405 446 829 703 1188 218
305 253 347 282 347 13 0 81 -28 152 -61z m8906 -136 c127 -175 315 -458 421
-633 73 -122 87 -152 87 -188 0 -37 4 -45 29 -60 51 -29 111 -178 111 -275 0
-55 -7 -76 -92 -251 -50 -105 -106 -219 -125 -252 -46 -85 -136 -217 -150
-221 -16 -6 -157 280 -192 392 -42 129 -54 211 -40 274 6 28 15 53 20 57 5 3
9 9 9 15 0 5 -28 -5 -61 -22 -51 -25 -64 -28 -74 -17 -34 35 -316 531 -313
550 2 15 31 38 98 76 142 81 340 224 340 245 0 18 -29 3 -94 -52 -40 -32 -112
-82 -161 -111 -50 -29 -111 -68 -136 -86 -26 -19 -54 -34 -63 -34 -27 0 -94
69 -111 114 -14 35 -15 51 -6 84 16 57 363 522 390 522 14 0 48 -39 113 -127z
m-3593 47 c10 -5 24 -24 32 -42 7 -18 30 -48 52 -67 42 -36 67 -84 67 -125 0
-14 10 -30 24 -40 14 -8 50 -59 82 -113 31 -54 97 -165 145 -246 91 -151 103
-189 70 -206 -10 -6 -96 -31 -192 -56 -95 -25 -175 -48 -178 -50 -9 -10 59 -5
136 10 43 8 122 29 177 46 97 31 98 31 123 13 15 -12 37 -51 57 -104 17 -47
70 -157 117 -245 105 -197 179 -352 179 -376 0 -25 -53 -83 -94 -103 -55 -26
-93 -21 -115 15 l-18 30 -6 -28 c-7 -34 16 -63 50 -63 13 0 46 11 73 25 33 17
66 25 98 25 55 0 75 -15 70 -52 -4 -31 -43 -48 -363 -161 -329 -116 -407 -140
-572 -176 -70 -16 -154 -38 -185 -50 -32 -11 -71 -21 -88 -21 -20 0 -30 -5
-30 -15 0 -34 -104 0 -121 39 -19 46 -160 579 -156 591 3 7 35 15 80 19 40 4
139 20 218 36 79 17 155 30 169 30 32 1 120 42 100 47 -8 2 -131 -21 -274 -52
-142 -30 -267 -55 -277 -55 -28 0 -45 35 -73 155 -31 127 -73 275 -123 430
-27 85 -34 121 -30 159 6 66 39 96 103 96 24 0 59 6 77 13 18 8 56 20 85 26
l52 13 63 -41 c67 -43 97 -51 97 -25 0 32 -31 122 -44 127 -7 3 -30 -7 -51
-21 -29 -21 -48 -27 -83 -25 -26 1 -100 -12 -166 -28 -133 -32 -178 -36 -195
-15 -13 15 -101 299 -101 325 0 36 24 52 95 62 104 14 180 35 266 74 46 21 92
35 116 35 28 0 46 6 59 21 26 29 67 49 101 49 15 0 46 12 68 25 51 32 95 32
150 -1 25 -14 54 -24 67 -21 20 3 19 5 -15 21 -40 18 -53 36 -43 61 6 17 48
20 75 5z m-4253 -281 c147 -33 273 -63 280 -67 19 -10 144 -188 144 -204 0 -7
-28 -32 -61 -56 -49 -35 -59 -47 -54 -63 15 -45 7 -110 -19 -153 -31 -54 -32
-67 -5 -92 21 -18 23 -18 161 18 78 20 147 34 154 31 22 -8 27 -43 10 -62 -9
-9 -47 -38 -84 -64 -55 -38 -77 -47 -111 -47 -47 0 -111 -23 -111 -40 0 -7 34
-52 75 -101 107 -128 120 -155 120 -261 0 -72 -3 -91 -21 -115 l-21 -28 -154
-6 c-174 -7 -290 -17 -307 -28 -6 -4 -14 -62 -18 -145 -6 -117 -5 -138 7 -134
10 3 15 33 19 117 4 84 9 114 20 121 37 23 160 3 247 -41 52 -26 70 -31 120
-28 l58 4 3 -41 c2 -25 -6 -65 -19 -100 -15 -40 -21 -78 -20 -117 2 -61 -18
-117 -60 -169 -21 -26 -22 -29 -6 -46 19 -21 22 -64 7 -92 -10 -19 -66 -40
-108 -40 -13 0 -43 17 -67 38 -41 36 -100 62 -139 62 -10 0 -21 13 -27 30 -16
45 -26 36 -34 -30 -8 -66 -24 -90 -59 -90 -19 0 -895 199 -949 216 -42 13 -40
36 27 226 156 445 339 883 567 1364 116 244 143 294 158 294 5 0 129 -27 277
-61z m3244 -49 c8 -5 20 -37 26 -72 18 -99 80 -298 150 -480 84 -219 107 -306
100 -382 -5 -52 -3 -61 20 -88 38 -46 61 -98 69 -153 3 -28 16 -72 27 -99 11
-28 20 -72 20 -105 0 -39 6 -63 19 -80 42 -53 18 -83 -113 -141 l-96 -42 -57
26 c-69 32 -68 31 -124 4 -34 -17 -64 -23 -112 -23 -120 0 -189 64 -264 244
-21 50 -50 102 -67 118 -25 24 -37 28 -86 28 -47 -1 -73 -9 -147 -45 -68 -34
-91 -50 -93 -67 -2 -15 18 -49 62 -105 36 -46 66 -92 66 -103 -1 -33 -64 -130
-85 -130 -26 0 -53 42 -63 97 -8 40 -20 57 -84 120 -50 48 -89 98 -116 148
-47 86 -81 126 -141 166 -24 15 -47 39 -52 52 -16 42 -22 301 -10 428 l12 122
-26 37 c-29 43 -33 100 -11 144 13 24 13 33 -1 72 -17 49 -13 150 7 174 9 11
35 15 94 15 44 0 117 7 161 15 44 8 159 24 256 36 96 11 247 33 335 49 163 28
298 37 324 20z m-5953 -22 c33 -37 45 -68 46 -120 1 -71 -9 -76 -98 -48 -42
13 -80 29 -85 35 -11 14 84 155 104 155 7 0 22 -10 33 -22z m3220 -45 c113
-122 161 -218 149 -297 -14 -87 -72 -135 -173 -144 -50 -4 -53 -3 -73 29 -11
19 -25 52 -31 74 -14 50 3 85 46 100 51 17 56 23 49 63 -10 54 -29 88 -69 118
-40 30 -46 63 -15 94 33 33 59 25 117 -37z m191 -62 c2 -18 -2 -39 -9 -47 -10
-13 -14 -12 -30 2 -24 21 -24 60 -1 73 26 15 37 8 40 -28z m515 18 c25 -14 21
-38 -10 -50 -105 -42 -127 -57 -231 -160 -92 -92 -115 -109 -141 -109 -58 0
-90 61 -56 106 20 26 19 47 -5 91 -23 43 -25 67 -9 113 l12 32 211 -7 c116 -4
219 -11 229 -16z m762 -19 c19 -15 22 -185 4 -196 -6 -4 -32 -12 -58 -19 -35
-8 -46 -16 -46 -31 0 -17 6 -19 52 -16 52 3 52 3 58 -31 4 -18 5 -49 3 -67 -3
-33 -7 -36 -83 -68 -43 -18 -81 -35 -83 -37 -5 -5 25 -61 43 -79 28 -28 63
-20 86 19 12 19 25 35 30 35 29 0 39 -102 14 -150 -14 -26 -13 -41 5 -151 29
-180 8 -200 -110 -101 -75 63 -175 122 -208 122 -13 0 -34 -20 -61 -57 -23
-32 -41 -63 -41 -68 0 -15 134 -149 200 -200 56 -43 227 -145 243 -145 10 0 0
-65 -14 -92 -5 -10 -16 -18 -24 -18 -29 0 -433 259 -457 293 -15 22 -23 48
-24 82 l-2 50 -94 -3 c-51 -2 -110 -8 -130 -13 -39 -10 -88 -59 -88 -88 0 -10
-9 -26 -20 -36 -17 -15 -25 -16 -70 -5 -29 7 -75 10 -103 7 -48 -4 -54 -8
-121 -81 l-71 -77 -62 1 c-64 0 -96 -7 -88 -19 2 -4 40 -6 84 -3 120 7 119 -6
-11 -128 l-105 -99 -5 -68 c-3 -41 -13 -84 -26 -109 -27 -54 -84 -114 -107
-114 -17 0 -18 10 -11 138 11 218 30 333 105 607 10 39 24 134 30 211 10 127
28 221 48 250 5 6 34 28 66 49 92 60 163 130 238 236 38 54 85 110 104 124 37
29 124 65 155 65 11 0 30 12 43 26 50 58 120 70 312 51 l130 -12 9 -37 c5 -21
15 -38 22 -38 8 0 14 16 16 38 3 36 4 37 63 54 65 19 136 18 160 -2z m-5587
-159 c56 -76 102 -141 102 -145 0 -5 -9 -19 -20 -33 -22 -28 -25 -59 -10 -83
8 -12 14 -10 39 18 45 48 80 42 111 -19 11 -21 40 -55 65 -76 25 -20 45 -43
45 -50 0 -7 -60 -118 -134 -246 -106 -183 -136 -245 -145 -291 -6 -32 -30
-102 -55 -155 -24 -53 -51 -121 -60 -151 -53 -174 -132 -380 -145 -380 -19 0
-9 161 20 350 12 74 24 180 28 236 6 105 11 119 63 164 l29 25 -37 53 -37 53
13 52 c7 29 16 136 19 238 6 185 6 186 39 249 l32 64 -39 40 c-49 50 -61 81
-61 155 0 106 14 99 138 -68z m10904 82 c8 -10 108 -172 222 -360 182 -301
207 -347 201 -373 -6 -25 -3 -30 18 -35 21 -6 46 -55 176 -346 83 -187 151
-348 151 -358 0 -43 -125 -203 -213 -272 -42 -33 -56 -39 -98 -39 -66 0 -104
-21 -119 -65 -6 -20 -28 -59 -47 -88 -19 -29 -42 -74 -50 -102 -18 -59 -64
-106 -119 -123 -33 -9 -51 -26 -99 -92 -59 -81 -88 -98 -112 -67 -6 6 -43 111
-83 232 -78 235 -185 531 -219 605 -11 25 -21 60 -21 79 0 23 -10 44 -30 68
-38 42 -79 124 -136 267 -24 61 -57 129 -73 151 -15 22 -54 91 -86 153 -56
110 -61 133 -37 169 7 11 363 228 387 236 6 2 5 10 -3 20 -8 9 -10 21 -5 29
21 35 344 328 361 328 10 0 26 -8 34 -17z m-10046 -378 c28 -19 46 -65 42
-106 l-3 -34 -70 -3 c-94 -4 -115 2 -115 34 0 89 84 153 146 109z m9026 -47
c51 -67 90 -147 84 -172 -14 -57 -113 -122 -258 -170 -58 -19 -85 -36 -132
-80 -61 -57 -184 -126 -232 -129 -23 -2 -35 7 -67 51 -22 28 -45 52 -51 52 -7
0 -23 -33 -35 -72 -13 -40 -30 -83 -38 -94 -21 -32 -66 -48 -118 -41 -36 5
-45 4 -45 -8 0 -8 9 -15 20 -15 36 0 21 -24 -36 -59 -47 -28 -58 -31 -69 -20
-20 20 -195 396 -195 419 0 30 26 48 103 72 605 184 988 296 1013 297 24 1 37
-6 56 -31z m-9372 -40 c0 -24 -26 -34 -45 -18 -20 16 -19 35 2 55 16 16 17 16
30 -1 7 -10 13 -26 13 -36z m3678 -95 c2 -32 -2 -47 -17 -62 -42 -42 -105 -35
-137 14 -21 32 -14 41 59 71 75 32 91 29 95 -23z m-3689 -20 c17 -21 31 -43
31 -50 0 -14 -50 -43 -73 -43 -22 0 -56 97 -42 119 14 23 54 11 84 -26z m-121
-76 c2 -16 14 -34 28 -43 31 -21 31 -44 0 -73 -37 -35 -66 -21 -66 30 0 26 -5
42 -15 45 -21 8 -19 51 3 63 27 17 47 8 50 -22z m300 -66 c110 -83 277 -192
415 -269 75 -42 123 -76 130 -91 13 -26 10 -34 -91 -282 -159 -390 -309 -892
-393 -1314 -17 -88 -36 -166 -41 -172 -19 -24 -45 -13 -167 71 -218 152 -389
289 -594 474 -150 137 -161 158 -155 290 4 80 12 119 47 222 24 69 49 135 57
147 8 12 32 27 54 33 43 12 53 37 25 60 -8 7 -15 29 -15 50 0 54 71 255 140
395 32 66 69 146 80 178 32 84 57 97 146 72 15 -5 51 18 149 94 70 56 130 101
132 101 2 0 39 -26 81 -59z m9383 -48 c56 -60 84 -106 108 -176 10 -30 35 -75
54 -100 19 -26 45 -72 56 -104 12 -32 34 -83 50 -113 16 -30 33 -73 36 -95 4
-22 18 -51 30 -65 36 -40 57 -89 59 -139 l1 -46 -55 -27 c-60 -30 -579 -188
-949 -289 l-233 -64 -19 24 c-10 12 -32 67 -49 120 -16 54 -43 125 -60 157
-49 98 -38 127 53 137 30 4 85 16 121 27 37 12 76 18 86 15 11 -3 38 -33 61
-66 23 -32 46 -59 50 -59 5 0 9 33 9 73 0 101 8 110 127 138 96 22 122 33 111
45 -10 9 -201 -40 -363 -94 -82 -28 -183 -56 -223 -63 -72 -12 -74 -12 -96 12
-23 24 -86 195 -86 234 0 16 31 36 138 92 147 76 420 202 567 261 75 30 101
47 158 101 78 77 172 134 197 121 9 -5 36 -30 61 -57z m-4710 -2 c19 -16 43
-45 54 -65 20 -37 18 -36 170 -78 l50 -14 3 -73 c2 -41 -1 -78 -7 -84 -10 -10
-103 41 -178 98 -25 19 -52 35 -60 35 -25 0 -63 47 -63 78 0 19 -10 37 -30 55
-70 62 -12 108 61 48z m6820 -92 c3 -13 12 -62 18 -110 6 -47 33 -165 61 -263
59 -213 78 -330 86 -536 7 -167 -5 -334 -36 -509 -18 -100 -18 -105 -1 -150
13 -34 20 -87 24 -201 12 -308 -22 -538 -101 -683 -36 -68 -40 -72 -73 -72
l-34 0 -6 235 c-6 215 -9 243 -33 323 -14 48 -26 107 -26 131 0 24 -7 61 -16
82 -12 29 -15 57 -11 113 5 68 4 75 -18 95 -18 17 -26 41 -39 119 -9 55 -28
133 -42 175 -24 68 -25 80 -14 111 10 28 10 36 0 39 -24 8 -50 42 -50 65 0 32
-36 159 -66 228 -20 49 -22 63 -13 81 7 13 9 43 5 80 l-6 58 106 165 c58 91
110 167 115 170 5 4 22 -2 39 -11 37 -23 44 -16 26 27 -38 92 -27 156 36 225
45 48 58 51 69 13z m-7127 -45 c9 -3 36 -37 62 -75 63 -96 110 -132 259 -204
137 -65 186 -99 210 -146 39 -74 5 -109 -135 -144 -58 -15 -110 -31 -117 -37
-20 -16 -3 -38 51 -65 53 -27 176 -45 176 -26 0 18 -30 36 -68 42 -40 7 -49
27 -20 45 12 7 27 7 54 -3 35 -13 37 -12 73 23 48 47 76 41 67 -12 -6 -41 -26
-66 -67 -82 l-29 -12 49 -54 c54 -58 81 -123 81 -191 0 -72 -14 -76 -262 -77
-188 -1 -212 1 -222 16 -8 14 -5 23 14 43 l24 25 -23 98 c-33 138 -36 142
-119 142 -76 0 -169 -21 -356 -80 l-128 -40 -39 22 -39 21 -52 -25 c-29 -15
-71 -29 -93 -33 -44 -8 -78 -23 -175 -77 -114 -64 -179 -69 -195 -18 -11 36
20 65 140 135 125 73 121 67 128 175 11 149 85 254 236 330 l83 41 -26 28
c-28 29 -34 69 -14 89 16 16 61 15 102 -2 30 -13 35 -20 51 -85 12 -49 22 -71
32 -71 13 0 14 8 8 48 -18 108 -23 99 105 174 111 64 141 75 174 62z m734 -90
c51 -36 80 -146 49 -189 -36 -49 -117 29 -125 121 -6 78 23 105 76 68z m646
-146 c64 -63 96 -113 96 -151 0 -24 -7 -31 -56 -54 -92 -42 -160 -13 -203 87
-26 60 -21 84 20 105 16 9 29 21 29 28 0 19 21 37 42 37 11 0 43 -24 72 -52z
m-4958 -44 c201 -96 522 -231 729 -308 222 -82 244 -92 251 -111 4 -9 -21
-109 -54 -223 -143 -490 -240 -931 -303 -1382 -12 -85 -26 -161 -32 -167 -20
-27 -46 -12 -93 55 -294 414 -559 768 -619 828 -93 92 -153 128 -197 119 -91
-20 -171 -95 -223 -208 -37 -81 -65 -200 -65 -280 0 -29 -5 -58 -12 -65 -30
-30 -88 1 -88 48 0 38 54 303 101 500 82 341 196 701 328 1036 76 194 93 224
120 224 10 0 81 -30 157 -66z m4390 -78 c93 -1 138 -41 224 -199 46 -86 73
-107 118 -91 21 7 31 21 44 63 26 81 31 84 113 78 63 -4 73 -2 98 19 45 37 83
32 147 -22 86 -71 136 -97 186 -97 41 0 56 7 141 69 20 14 25 14 64 -7 24 -12
65 -25 92 -28 53 -7 68 -24 25 -29 -30 -4 -39 -22 -41 -84 -2 -32 -1 -33 36
-32 27 1 47 10 68 30 36 34 36 56 4 98 -29 39 -27 41 54 74 44 18 57 20 67 10
38 -40 60 -242 30 -268 -48 -39 -849 -170 -1346 -220 -167 -16 -198 -17 -216
-5 -19 12 -21 26 -27 166 -4 84 -7 205 -7 269 0 64 -5 131 -11 148 -8 22 -7
36 1 52 10 19 17 21 43 14 18 -4 59 -8 93 -8z m2977 -56 c52 -41 144 -216 124
-236 -15 -15 -274 -84 -297 -79 -19 4 -32 0 -45 -15 -18 -20 -18 -20 11 -20
16 0 62 9 103 20 121 32 147 29 200 -28 25 -26 63 -60 83 -75 46 -34 85 -98
94 -154 6 -39 3 -46 -40 -102 -54 -70 -79 -80 -141 -57 -62 24 -177 108 -222
161 -21 26 -68 69 -105 98 -64 48 -68 53 -68 92 0 41 -22 85 -42 85 -6 0 -26
-14 -46 -31 -51 -45 -95 -60 -198 -69 -96 -8 -144 -24 -126 -42 7 -7 53 -3
142 13 l133 23 23 -29 c32 -40 37 -73 20 -122 -14 -41 -14 -42 16 -80 17 -21
67 -92 111 -158 106 -158 132 -190 192 -233 27 -19 64 -48 80 -63 l30 -28 160
60 c187 69 212 71 238 16 18 -35 18 -39 3 -62 -9 -14 -24 -25 -34 -25 -9 0 2
-9 26 -20 30 -13 47 -29 56 -52 28 -66 48 -164 50 -249 3 -79 6 -91 41 -150
66 -112 83 -191 48 -221 -25 -21 -291 -120 -303 -113 -27 17 3 78 75 155 55
57 120 171 112 194 -6 16 -121 51 -143 42 -22 -8 -14 -64 16 -106 12 -17 20
-34 18 -39 -2 -5 -49 -61 -105 -124 -74 -83 -111 -116 -132 -120 -29 -6 -33
-12 -45 -68 -5 -24 -26 -33 -278 -123 -150 -53 -280 -96 -289 -96 -19 0 -69
37 -69 51 0 6 -20 52 -44 102 -58 122 -63 148 -37 193 45 76 13 117 -74 95
-25 -6 -50 -9 -55 -6 -26 16 -396 526 -422 581 -29 63 -97 316 -98 365 0 34
17 49 56 49 18 0 49 10 69 21 31 18 46 21 99 15 54 -5 65 -4 80 13 16 18 14
18 -101 14 -97 -5 -122 -9 -139 -24 -24 -22 -57 -25 -73 -5 -13 15 -71 281
-71 324 0 38 17 52 65 52 22 0 58 9 80 20 22 11 57 20 80 20 22 0 67 12 100
25 33 14 123 41 199 61 77 19 196 56 265 81 150 54 197 68 275 82 71 13 142
46 156 72 11 19 56 48 76 49 6 0 23 -9 37 -20z m2885 -289 c7 -4 36 -91 64
-192 44 -164 48 -187 36 -209 -7 -13 -53 -47 -103 -76 -49 -28 -91 -56 -93
-63 -8 -25 35 -8 109 44 43 30 84 55 91 55 22 0 61 -73 66 -122 2 -26 0 -60
-6 -76 -9 -27 -7 -33 18 -57 33 -31 55 -109 46 -158 -4 -23 0 -41 14 -62 24
-37 25 -64 3 -110 -18 -39 -20 -28 30 -197 60 -202 85 -403 68 -541 -19 -145
-59 -222 -155 -297 -31 -23 -87 -82 -125 -129 -83 -103 -269 -287 -365 -359
-102 -77 -136 -67 -76 22 43 63 85 157 117 261 24 80 27 106 27 230 0 165 -16
223 -88 299 -67 72 -87 67 -216 -49 -58 -52 -110 -95 -117 -95 -19 0 -27 20
-46 115 -84 424 -88 596 -18 734 19 36 19 81 1 81 -4 0 -16 -23 -26 -50 -21
-58 -44 -83 -67 -74 -19 7 -21 12 -47 138 -26 129 -26 136 6 136 19 0 28 -7
35 -30 9 -24 17 -30 41 -30 l30 0 -7 78 -7 78 45 41 c25 23 63 51 85 62 24 12
86 71 153 146 63 69 121 125 130 125 24 0 28 -7 109 -192 41 -93 78 -168 82
-168 15 0 8 35 -34 162 l-42 127 22 30 c28 39 28 41 -7 41 -36 0 -61 23 -61
55 0 29 224 285 249 285 9 0 22 -4 29 -9z m-9003 -46 c268 -76 585 -143 896
-190 88 -13 167 -29 175 -36 30 -25 16 -59 -58 -138 -197 -210 -356 -479 -587
-994 -113 -251 -87 -246 38 8 178 363 372 700 494 859 38 50 92 121 119 157
57 77 80 88 114 54 20 -20 23 -31 19 -62 -8 -57 -43 -392 -55 -528 -6 -66 -19
-156 -29 -200 -10 -46 -16 -102 -13 -133 2 -29 -1 -74 -8 -100 -7 -26 -13
-124 -15 -222 -1 -96 -8 -207 -14 -247 -7 -39 -13 -111 -15 -160 -2 -62 -8
-99 -21 -126 -18 -36 -18 -39 -2 -66 20 -34 22 -82 5 -99 -18 -18 -42 -16
-343 38 -154 27 -281 50 -282 50 -1 0 -11 28 -22 63 -26 79 -51 223 -51 294 0
39 -4 54 -12 51 -20 -7 -21 -79 -4 -171 20 -107 21 -206 2 -213 -12 -5 -831
203 -892 226 -35 14 -48 61 -41 153 17 222 150 886 258 1292 59 221 130 458
142 473 15 18 31 16 202 -33z m2295 -5 c11 -11 20 -29 20 -40 0 -22 -33 -60
-53 -60 -30 0 -250 -30 -255 -35 -12 -12 192 -4 260 11 126 26 193 2 186 -67
-4 -46 -59 -84 -103 -73 -16 5 -66 7 -110 6 -48 -2 -96 3 -119 11 -29 10 -49
11 -76 3 -46 -12 -321 13 -327 30 -10 31 41 57 282 144 138 49 256 89 263 90
6 0 21 -9 32 -20z m5488 -7 c21 -19 242 -655 242 -697 0 -12 -7 -32 -16 -44
-20 -29 -140 -109 -230 -155 -41 -21 -86 -53 -105 -75 -26 -30 -124 -90 -410
-250 -207 -116 -383 -211 -390 -212 -32 -5 -41 3 -64 55 -37 82 -66 200 -72
291 -5 72 -2 94 32 214 35 127 36 135 19 147 -10 7 -33 13 -51 13 -80 0 -147
57 -159 136 -5 33 -3 50 7 59 15 15 219 41 244 31 9 -3 15 -23 17 -53 3 -40 6
-48 23 -48 16 0 22 11 33 62 l13 62 109 46 c126 53 133 52 192 -25 21 -27 64
-67 97 -89 51 -35 64 -51 95 -115 36 -74 83 -126 114 -126 9 1 28 7 42 15 58
33 92 10 111 -73 13 -53 29 -70 29 -29 -1 12 -13 76 -28 142 -24 103 -30 120
-47 120 -14 0 -21 -8 -23 -25 -5 -45 -23 -77 -48 -89 -85 -38 -148 29 -102
110 29 52 19 68 -52 86 -66 17 -120 52 -163 107 -47 60 -56 65 -120 66 -43 0
-100 -14 -229 -56 -196 -63 -275 -75 -328 -47 -19 10 -41 30 -50 45 -14 26
-13 29 5 48 14 14 200 72 620 194 330 96 605 175 611 175 7 1 21 -7 32 -16z
m-3066 -118 c14 -82 10 -123 -14 -136 -30 -16 -38 -28 -38 -60 0 -32 36 -67
79 -75 36 -7 49 -27 32 -48 -15 -18 -113 -38 -145 -30 -18 4 -33 1 -45 -10
-14 -13 -34 -16 -87 -14 -67 3 -95 -2 -451 -83 -85 -20 -107 -21 -188 -4 -23
5 -35 2 -48 -13 -17 -19 -16 -19 77 -14 66 3 105 1 127 -8 28 -12 33 -11 48 8
13 16 34 23 106 31 50 6 106 15 125 21 90 26 171 4 213 -58 32 -46 52 -90 45
-97 -9 -10 -393 -82 -604 -114 -110 -17 -323 -46 -473 -65 -150 -19 -275 -37
-279 -40 -10 -10 162 -6 223 5 43 8 64 8 80 -1 18 -9 29 -8 62 10 26 13 66 23
105 25 35 2 250 33 478 69 228 36 424 66 436 66 15 0 34 -20 68 -70 25 -38 46
-76 46 -84 0 -24 -24 -35 -141 -61 -146 -34 -145 -33 -132 -46 7 -7 29 -5 69
7 65 20 221 23 264 7 14 -6 43 -41 70 -84 32 -52 52 -75 69 -77 34 -5 63 -77
59 -149 -4 -69 -17 -79 -121 -89 -47 -4 -70 -10 -74 -21 -11 -27 13 -36 48
-18 42 22 153 32 173 16 7 -6 17 -37 20 -69 4 -31 9 -65 12 -74 8 -27 -11 -22
-44 12 -55 55 -83 35 -86 -59 l-1 -36 67 3 67 3 11 -41 c6 -23 10 -68 9 -99
-2 -41 3 -65 14 -82 10 -14 17 -43 17 -70 0 -29 6 -51 15 -59 8 -7 15 -16 15
-21 0 -14 -214 -77 -349 -103 -268 -52 -921 -145 -1231 -175 -308 -29 -348
-32 -357 -18 -13 20 -51 371 -41 382 5 6 26 10 48 11 48 0 70 18 70 56 0 44
-42 81 -81 73 -22 -5 -36 -2 -50 11 -24 22 -24 38 1 73 17 22 19 32 10 55 -5
15 -10 67 -10 115 0 49 -7 109 -15 137 -22 71 -19 81 26 109 38 24 40 29 37
67 -3 37 -7 44 -43 63 l-40 20 0 170 c0 145 3 175 18 203 26 49 77 67 147 55
42 -8 64 -7 98 5 29 10 63 13 99 9 49 -5 60 -3 96 21 31 21 36 28 23 30 -10 2
-37 -3 -60 -11 -22 -8 -92 -18 -154 -21 -62 -3 -142 -11 -178 -17 -35 -6 -71
-9 -79 -5 -16 6 -19 63 -6 121 6 29 7 30 84 36 96 8 118 17 240 97 102 67 150
81 170 51 8 -13 5 -23 -11 -44 -29 -37 -28 -80 3 -110 28 -29 42 -31 73 -9 18
12 22 25 22 69 0 44 4 57 22 69 40 28 83 30 132 6 42 -20 47 -20 68 -6 39 27
113 20 203 -20 120 -54 110 -55 148 22 l33 69 59 0 c33 0 110 -4 171 -9 l111
-8 23 134 c12 73 27 139 33 146 6 7 20 12 31 10 16 -2 22 -13 28 -43z m-127
-36 c9 -41 -11 -87 -46 -105 -16 -8 -71 -19 -122 -23 -112 -11 -163 -23 -255
-57 l-70 -26 -211 25 c-116 14 -215 28 -221 32 -14 9 -12 31 4 44 15 12 884
151 903 144 6 -3 15 -18 18 -34z m1275 -85 c40 6 44 4 103 -50 119 -107 227
-164 311 -164 18 0 50 13 75 30 46 32 86 39 94 17 7 -20 -118 -216 -167 -262
-40 -37 -109 -70 -126 -60 -4 3 -10 23 -13 45 -6 45 -51 128 -74 137 -10 4
-23 -3 -35 -20 -11 -15 -25 -27 -31 -27 -44 1 -261 352 -234 379 8 8 17 5 34
-10 18 -18 29 -21 63 -15z m-3996 -65 c52 -10 75 -10 99 -1 32 12 36 12 244
-23 63 -11 95 -12 141 -3 55 10 65 9 114 -12 110 -47 166 -62 267 -70 113 -8
137 -20 178 -79 35 -52 66 -142 68 -196 0 -27 5 -61 11 -75 6 -14 18 -162 27
-330 14 -271 14 -306 1 -321 -11 -13 -42 -18 -129 -24 -122 -7 -129 -11 -104
-57 11 -20 11 -20 33 6 19 24 32 29 105 38 102 12 108 8 94 -63 -9 -42 -8 -61
5 -96 21 -54 16 -58 -82 -67 -126 -12 -156 -18 -156 -32 0 -24 18 -25 79 -4
84 28 155 27 175 -2 20 -29 20 -100 1 -138 -14 -27 -13 -49 10 -242 16 -128
22 -215 17 -220 -15 -15 -92 -29 -116 -22 -11 4 -70 9 -131 10 -149 4 -147 4
-255 -2 -175 -9 -423 -4 -525 12 -58 9 -227 19 -405 24 -301 9 -400 20 -467
52 -61 29 -52 112 15 144 46 22 175 22 273 1 72 -15 99 -9 99 23 0 23 -123
110 -156 110 -25 0 -49 -25 -58 -62 -7 -31 -17 -35 -112 -44 l-72 -6 -11 35
c-16 47 3 493 24 591 9 41 17 144 20 255 4 137 9 200 22 241 11 34 18 89 18
145 0 50 6 126 13 170 6 44 15 135 20 202 7 108 11 126 31 147 13 14 33 26 45
28 33 5 452 -30 530 -43z m1486 13 c0 -25 -57 -191 -71 -208 -6 -8 -21 -14
-32 -14 -36 0 -191 61 -209 82 -21 24 -24 91 -5 107 25 20 162 46 265 49 44 2
52 -1 52 -16z m-394 -47 c18 -19 24 -34 22 -57 -5 -50 -26 -55 -83 -19 -35 22
-61 31 -92 31 -35 0 -43 3 -43 19 0 34 30 46 128 50 34 1 48 -4 68 -24z m1806
-148 c16 -17 73 -176 65 -183 -3 -3 -27 9 -54 27 -26 19 -82 45 -123 59 -57
20 -75 30 -75 45 0 14 17 23 75 40 92 28 95 28 112 12z m-7574 -178 c208 -196
429 -372 651 -520 69 -46 113 -82 117 -96 3 -12 -3 -104 -15 -205 -35 -306
-43 -430 -47 -763 -2 -175 -8 -323 -12 -327 -22 -22 -42 3 -198 233 -329 484
-536 1028 -619 1632 -13 92 -14 122 -4 133 6 8 13 14 15 14 2 0 52 -45 112
-101z m7547 -9 c14 -27 34 -54 45 -60 22 -12 70 -89 70 -113 0 -26 -37 -57
-66 -57 -17 0 -40 14 -65 39 -36 36 -39 43 -39 95 0 32 -5 66 -11 77 -8 16 -7
26 6 45 8 13 20 24 25 24 5 0 21 -22 35 -50z m2010 -101 c12 -18 -5 -97 -25
-121 -15 -19 -22 -21 -37 -12 -20 12 -49 105 -40 128 7 19 92 23 102 5z m1320
-79 c19 -21 56 -176 75 -320 6 -47 20 -128 31 -182 10 -53 19 -124 19 -157 0
-34 16 -133 36 -221 21 -94 32 -165 27 -174 -51 -89 -1150 -1186 -1188 -1186
-15 0 -18 23 -35 250 -26 346 -78 727 -151 1098 -22 112 -37 212 -34 222 4 13
91 62 258 147 302 154 500 268 736 425 97 64 183 117 192 117 9 1 24 -8 34
-19z m-3160 -150 c12 -20 36 -124 31 -137 -9 -23 -22 -14 -41 28 -10 22 -27
45 -37 50 -21 11 -24 39 -6 57 15 15 45 16 53 2z m140 -45 c14 -31 100 -149
190 -263 91 -114 165 -212 165 -219 0 -19 -32 -45 -48 -38 -35 13 -98 16 -125
6 -41 -16 -23 -33 26 -26 23 4 55 2 71 -5 23 -8 34 -7 52 5 13 8 29 15 37 15
16 0 100 -138 133 -219 27 -67 25 -102 -9 -126 -48 -33 -119 -6 -147 56 -13
31 -29 46 -66 64 -64 30 -132 101 -192 201 -70 117 -88 175 -122 393 -16 107
-30 198 -30 203 0 4 9 8 19 8 14 0 27 -16 46 -55z m-6937 -282 c14 -13 31 -62
57 -168 79 -320 168 -518 470 -1040 322 -555 535 -949 640 -1182 42 -92 42
-127 -1 -143 -31 -12 -148 30 -242 88 -222 134 -1041 954 -1081 1080 -6 20
-16 91 -22 156 -14 140 -1 458 31 761 12 105 24 235 29 290 5 55 14 112 19
127 19 47 65 61 100 31z m8670 -236 c13 -16 84 -361 117 -572 50 -324 85 -695
85 -908 l0 -119 -164 -171 c-90 -95 -197 -209 -237 -255 -41 -46 -94 -96 -119
-112 -101 -65 -273 -127 -549 -199 l-148 -39 -52 40 c-42 32 -55 37 -66 28 -8
-7 -15 -21 -15 -30 0 -28 -46 -77 -83 -89 -40 -13 -185 -41 -213 -41 -36 0
-44 41 -41 230 2 129 -1 184 -11 208 -7 19 -13 66 -12 105 3 203 -11 504 -25
540 -17 43 -19 104 -5 141 7 20 16 26 40 26 19 0 30 5 30 14 0 22 -17 28 -40
14 -18 -11 -23 -10 -36 6 -8 11 -14 42 -14 70 0 28 -3 60 -5 71 -3 11 -2 25 3
32 4 6 223 60 487 119 264 58 482 108 484 110 1 1 0 7 -3 12 -3 5 -31 2 -65
-6 -64 -16 -94 -11 -89 13 5 22 190 165 214 165 44 0 47 -20 25 -149 -31 -182
-74 -253 -162 -267 -22 -4 -42 -10 -44 -14 -3 -4 18 -42 45 -84 28 -42 50 -80
50 -84 0 -5 -12 -24 -26 -43 -14 -19 -52 -89 -85 -155 -58 -117 -229 -362
-271 -388 -13 -8 -27 -5 -58 13 -44 24 -74 23 -117 -5 -32 -20 -29 -31 16 -53
48 -25 71 -47 71 -69 0 -9 -28 -55 -61 -102 -51 -71 -139 -226 -139 -245 0 -3
8 -5 18 -5 11 0 26 20 44 58 15 32 70 114 124 182 175 225 287 392 414 615 34
61 73 120 87 131 24 20 25 24 14 72 -12 58 -3 100 32 141 17 21 26 46 30 92 5
46 18 87 47 145 40 79 40 81 25 117 -8 20 -15 60 -15 90 0 100 -35 101 -160 7
-118 -90 -160 -114 -234 -135 -63 -18 -155 -16 -209 4 -34 13 -37 59 -7 86 20
18 21 18 48 -8 32 -30 42 -33 42 -13 0 8 -13 24 -30 36 -37 27 -38 43 -2 65
15 10 122 89 238 176 251 189 282 207 534 315 199 85 229 94 248 71z m-1627
-138 c12 -17 27 -50 34 -72 7 -23 21 -47 32 -52 32 -16 54 -37 64 -60 5 -11
19 -32 31 -48 29 -36 16 -48 -82 -71 -69 -15 -76 -16 -86 -1 -16 21 -28 108
-19 134 4 13 -3 36 -19 64 -25 42 -37 133 -20 150 11 10 41 -11 65 -44z m4395
-34 c8 -20 -13 -70 -44 -106 -24 -29 -55 -38 -67 -19 -10 17 13 73 44 108 32
35 58 41 67 17z m-3538 -132 c-3 -25 -8 -29 -45 -34 -24 -3 -44 -7 -46 -10 -2
-2 -18 -24 -34 -49 -37 -53 -85 -100 -132 -128 -54 -33 -91 -7 -91 62 1 72 33
95 208 146 70 21 131 38 135 39 5 0 7 -11 5 -26z m3362 -212 c0 -101 -17 -253
-36 -313 -7 -24 -40 -23 -71 2 -20 15 -29 17 -39 9 -20 -17 -17 -37 11 -71 32
-38 32 -81 0 -113 -13 -14 -28 -25 -32 -25 -29 1 -37 25 -54 165 -10 81 -21
150 -24 153 -16 16 -18 -22 -6 -136 23 -213 24 -256 8 -294 -44 -105 -435
-508 -700 -721 -98 -79 -97 -81 -91 151 7 227 21 326 58 403 37 79 80 125 245
261 172 143 303 259 423 376 92 90 118 100 118 43 0 -36 43 -91 59 -76 6 6 22
43 35 83 19 56 23 79 16 103 -12 43 -3 75 27 99 49 38 53 31 53 -99z m-9447 9
c194 -50 367 -97 384 -105 19 -8 34 -24 37 -37 3 -13 7 -104 10 -203 5 -198
14 -245 67 -346 34 -64 62 -95 408 -454 184 -191 223 -244 246 -330 20 -80 20
-184 -1 -192 -9 -3 -21 2 -30 15 -46 66 -281 367 -375 480 -145 174 -278 318
-600 648 -326 334 -445 462 -497 538 -41 58 -45 76 -16 76 8 0 173 -41 367
-90z m5662 70 c37 -41 -8 -67 -55 -31 -20 16 -22 21 -11 35 18 22 44 20 66 -4z
m-95 -52 c14 -33 40 -150 35 -158 -3 -4 -25 -13 -50 -20 -48 -13 -64 -37 -17
-26 90 20 85 22 211 -49 67 -36 121 -73 121 -81 0 -28 -51 -44 -303 -95 -241
-49 -259 -51 -275 -35 -13 12 -20 58 -34 199 -19 203 -18 209 45 247 37 23 78
25 142 8 42 -11 47 -11 67 10 28 28 46 28 58 0z m-400 -67 c5 -11 10 -52 10
-91 0 -63 -2 -71 -17 -68 -12 2 -19 14 -21 38 -6 59 -52 91 -82 55 -31 -37 36
-155 88 -155 33 0 42 -23 44 -115 l3 -89 -85 -14 c-47 -7 -249 -41 -450 -74
-201 -34 -392 -64 -425 -67 -46 -5 -61 -10 -63 -23 -2 -10 2 -18 10 -18 7 0
238 38 512 85 329 56 503 82 510 75 5 -5 10 -51 10 -102 l1 -93 -79 -12 c-43
-6 -81 -14 -84 -17 -10 -10 73 -99 101 -109 21 -7 34 -5 53 8 22 14 25 22 20
50 -7 35 5 53 22 32 6 -7 7 -34 2 -66 -4 -30 -5 -86 -3 -125 3 -39 0 -106 -5
-149 -9 -70 -8 -83 9 -123 26 -57 18 -81 -34 -104 -23 -10 -55 -32 -71 -49
-22 -23 -39 -31 -65 -32 -20 -1 -47 -4 -61 -8 l-25 -7 22 -12 c28 -15 58 -15
83 0 15 10 29 10 62 1 100 -27 95 -22 102 -120 3 -48 11 -141 17 -205 6 -64 8
-121 4 -127 -3 -6 -16 -11 -28 -11 -36 0 -66 -28 -91 -83 -13 -30 -33 -57 -47
-64 -13 -7 -69 -13 -124 -15 -83 -3 -110 -8 -160 -31 -56 -26 -60 -27 -72 -11
-7 10 -16 32 -19 50 -9 48 -26 59 -77 48 -39 -8 -42 -12 -45 -44 -5 -45 -26
-68 -71 -76 -20 -4 -62 -20 -94 -37 -48 -25 -62 -29 -77 -19 -15 9 -25 8 -47
-3 -31 -17 -100 -20 -123 -5 -8 5 -24 28 -35 51 -24 51 -43 64 -78 55 -21 -5
-29 -15 -38 -51 -6 -24 -17 -49 -24 -55 -20 -17 -135 -38 -278 -50 -73 -7
-176 -23 -229 -36 -131 -32 -153 -31 -192 9 l-33 32 -9 340 c-5 187 -8 447 -6
577 2 212 1 245 -18 317 -11 44 -23 107 -26 140 -6 54 -5 60 16 71 31 17 102
7 138 -19 36 -25 42 -26 42 -6 0 9 12 27 27 41 l27 25 -114 -6 c-146 -9 -153
-5 -158 91 -4 92 17 138 67 142 19 2 51 -4 71 -13 35 -16 42 -16 128 3 76 17
94 18 109 7 15 -11 21 -11 36 2 9 9 17 20 17 25 0 13 -60 9 -114 -7 -107 -33
-156 -7 -156 82 0 55 -16 63 -82 39 -27 -9 -53 -14 -58 -11 -14 9 -12 65 3 70
6 2 113 14 237 25 124 11 260 25 303 32 48 7 81 8 87 2 6 -6 5 -37 -2 -83 -10
-66 -14 -75 -40 -90 -17 -9 -39 -23 -50 -32 -19 -14 -20 -17 -6 -44 l16 -29 7
32 c12 55 38 65 128 45 72 -15 78 -15 95 0 13 12 58 22 143 32 68 9 176 28
239 42 169 39 162 40 178 -34 10 -44 18 -63 29 -63 17 0 17 5 -12 135 -27 126
-37 145 -79 145 -47 0 -60 -25 -51 -96 8 -63 37 -51 -243 -97 -148 -25 -205
-31 -212 -23 -5 7 -20 46 -33 89 -18 56 -22 79 -13 86 6 5 94 17 196 26 102 9
199 21 215 26 26 10 739 155 772 158 7 1 17 -8 23 -18z m-4374 -130 c143 -32
273 -62 289 -65 l31 -7 -2 -224 c-1 -123 -5 -229 -9 -236 -6 -8 -26 -10 -69
-5 -102 11 -105 11 -108 1 -2 -6 31 -12 79 -15 55 -3 87 -10 97 -20 10 -11 17
-73 26 -249 17 -323 13 -326 -190 -121 -121 122 -237 274 -397 523 l-92 142
25 155 c30 182 29 180 48 180 7 0 130 -27 272 -59z m1049 -116 c399 -25 552
-31 586 -24 60 13 92 0 124 -51 28 -45 45 -45 45 1 0 16 6 29 13 30 65 4 524
-4 529 -9 11 -12 30 -280 35 -497 8 -352 11 -414 22 -463 6 -26 15 -155 21
-287 5 -132 17 -333 27 -447 16 -200 16 -208 -2 -228 -36 -40 -97 -21 -116 37
-7 22 -45 72 -94 124 -119 125 -127 149 -134 404 -6 189 -8 202 -31 244 -39
68 -69 86 -148 86 -37 0 -92 -4 -122 -8 -49 -8 -59 -6 -90 15 -19 13 -46 44
-60 70 -21 40 -31 48 -66 57 -43 11 -84 50 -84 79 0 38 30 52 109 52 42 0 101
7 131 15 35 10 73 13 105 9 42 -5 56 -13 91 -50 45 -47 74 -55 111 -29 12 9
25 31 29 50 3 19 12 39 18 44 7 6 54 17 104 24 90 13 112 21 99 33 -8 9 -224
-15 -283 -32 -28 -7 -62 -23 -76 -34 -25 -19 -26 -19 -43 0 -22 24 -52 25
-200 5 -60 -8 -173 -20 -250 -26 -77 -7 -142 -14 -144 -16 -3 -2 22 -30 54
-63 49 -50 65 -60 93 -60 96 0 174 -46 211 -125 29 -63 50 -69 185 -54 96 10
116 9 148 -4 64 -27 71 -53 79 -292 9 -279 15 -297 136 -428 87 -95 102 -119
83 -142 -11 -13 -53 -15 -289 -15 -466 0 -1268 39 -1320 64 -40 19 -212 334
-247 451 -12 42 -18 97 -18 185 -1 120 0 125 19 122 11 -2 68 -6 126 -9 180
-9 475 48 635 121 93 44 98 65 5 26 -107 -46 -157 -54 -207 -35 -39 15 -46 15
-94 -1 -68 -22 -251 -15 -365 15 -117 31 -131 49 -139 183 -9 141 -11 394 -5
563 3 80 1 158 -5 183 -12 48 4 124 31 154 21 23 -7 24 628 -17z m6565 -602
c0 -5 -20 -147 -44 -317 -28 -197 -49 -313 -57 -321 -17 -15 -535 -325 -544
-325 -20 0 28 79 309 503 265 400 337 500 336 460z m-1950 -849 c0 -4 -38 -66
-83 -138 -261 -409 -449 -798 -606 -1251 -40 -114 -45 -123 -89 -155 -25 -19
-56 -55 -69 -80 -13 -25 -29 -50 -36 -56 -7 -7 -69 -28 -140 -48 -99 -28 -132
-34 -147 -26 -25 13 -25 -1 5 214 14 99 25 183 25 187 0 4 28 27 63 52 170
121 237 253 237 466 0 132 -17 243 -51 329 -40 100 -50 209 -23 234 11 9 98
36 194 61 216 56 363 101 545 165 136 49 175 59 175 46z m-6955 -205 c9 -28
-8 -45 -25 -25 -13 17 -7 46 9 46 5 0 13 -9 16 -21z m5930 -109 c14 -15 16
-29 11 -61 -6 -36 0 -54 44 -144 27 -57 61 -144 76 -195 22 -78 26 -106 22
-189 -3 -89 -7 -105 -40 -172 -25 -51 -58 -95 -105 -141 -65 -66 -98 -82 -109
-55 -6 17 43 954 51 967 10 16 30 12 50 -10z m-146 -29 c4 -9 4 -83 -1 -166
-8 -143 -10 -151 -34 -173 -27 -24 -54 -23 -85 4 -8 8 -30 17 -47 20 -43 9
-42 -13 1 -24 25 -6 37 -18 53 -53 12 -24 38 -60 58 -78 l36 -35 0 -151 c0
-106 -4 -156 -12 -167 -7 -8 -43 -28 -80 -43 -37 -15 -66 -31 -63 -35 2 -3 29
-12 59 -20 85 -20 83 -15 51 -128 -24 -85 -26 -105 -16 -132 18 -52 13 -74
-20 -103 -29 -25 -31 -31 -27 -78 7 -72 -6 -84 -132 -113 -473 -110 -1266
-220 -1386 -193 -34 8 -50 7 -81 -8 -42 -20 -110 -23 -142 -6 -27 15 -31 35
-34 161 -3 141 6 142 115 11 46 -55 84 -96 86 -91 2 5 -32 65 -75 132 -116
181 -114 177 -124 368 -5 91 -16 220 -24 287 -8 68 -15 129 -15 138 0 26 20
16 42 -21 14 -24 24 -32 31 -25 7 7 1 23 -17 52 -51 76 -78 165 -84 271 -7
147 -8 145 90 152 304 21 396 30 584 52 385 45 971 145 1189 202 75 20 91 19
104 -7z m-3449 -238 c143 -13 323 -17 789 -18 598 -2 605 -2 621 -23 20 -24
24 -72 45 -602 14 -340 24 -523 42 -712 5 -63 4 -68 -22 -94 l-27 -27 -337 7
c-874 17 -912 18 -932 35 -13 11 -38 81 -75 211 -100 352 -231 731 -368 1069
-37 89 -63 167 -60 173 4 7 30 8 73 4 36 -4 149 -14 251 -23z m3758 -1199 c7
-51 -184 -365 -318 -524 -74 -87 -110 -110 -110 -70 0 31 68 438 80 482 13 46
23 51 175 99 135 42 168 45 173 13z m-413 -104 c10 -16 -13 -119 -39 -174 -19
-42 -22 -62 -19 -112 14 -170 -41 -332 -143 -423 -115 -102 -275 -207 -446
-292 -247 -124 -501 -200 -880 -264 -169 -28 -193 -26 -203 18 -8 36 -57 921
-53 968 3 39 7 46 43 67 31 18 51 22 88 19 61 -5 88 -30 173 -157 35 -52 102
-139 149 -193 50 -58 85 -108 85 -120 0 -33 35 -84 71 -102 64 -34 182 -30
318 11 29 8 51 17 49 19 -2 2 -26 -2 -53 -10 -57 -18 -228 -20 -273 -4 -36 12
-26 -2 -204 289 -76 123 -138 231 -138 240 0 9 7 26 16 38 14 20 23 22 127 22
133 0 467 41 853 105 150 25 275 45 278 45 3 0 6 -9 6 -19 0 -12 -41 -57 -101
-113 -84 -77 -109 -95 -147 -103 -61 -13 -75 -39 -60 -114 11 -52 10 -55 -15
-77 -15 -13 -41 -46 -58 -75 -48 -82 -96 -136 -161 -179 -33 -22 -57 -40 -53
-40 21 0 200 102 265 151 160 122 262 258 315 418 21 64 70 121 128 150 46 23
72 26 82 11z m-2573 -217 c287 -4 439 -3 549 7 144 12 152 12 170 -6 17 -17
20 -59 39 -459 25 -563 26 -595 10 -605 -13 -8 -398 -21 -685 -24 -248 -2
-270 12 -360 227 -76 181 -169 440 -223 622 -83 276 -84 261 26 251 42 -3 256
-9 474 -13z m321 -1169 c98 -16 454 -144 475 -172 13 -17 15 -131 4 -217 -7
-47 -9 -51 -47 -63 -91 -31 -277 14 -425 103 -117 71 -204 139 -312 244 -95
92 -111 115 -85 124 24 9 304 -5 390 -19z m722 -229 c61 -14 184 -37 275 -51
91 -14 175 -30 188 -35 22 -8 29 -34 14 -55 -7 -12 -606 -66 -629 -57 -15 6
-21 32 -29 131 -6 67 -4 86 7 93 16 11 20 10 174 -26z"/>
<path d="M13232 13488 c-7 -7 -12 -21 -12 -31 0 -16 5 -18 27 -12 36 9 39 13
27 32 -14 22 -27 26 -42 11z"/>
<path d="M6047 13006 c-27 -7 -56 -21 -65 -30 -15 -15 -14 -16 18 -15 42 0
124 30 122 44 -2 15 -22 15 -75 1z"/>
<path d="M11130 13385 c-16 -19 3 -45 32 -45 27 0 35 30 13 46 -24 18 -30 17
-45 -1z"/>
<path d="M12753 13235 c-54 -23 -40 -35 41 -35 79 0 103 13 71 37 -24 17 -71
16 -112 -2z"/>
<path d="M12654 13155 c-8 -20 11 -64 31 -72 24 -9 26 0 12 42 -15 43 -34 56
-43 30z"/>
<path d="M13120 12969 c-77 -27 -222 -100 -185 -93 39 7 243 93 251 105 7 12
-2 11 -66 -12z"/>
<path d="M13285 12846 c-16 -7 -41 -25 -53 -39 l-24 -25 69 4 c71 4 93 17 93
56 0 22 -40 24 -85 4z"/>
<path d="M13039 12731 c-35 -29 -15 -43 57 -39 55 3 59 5 59 28 0 23 -4 25
-46 28 -34 2 -52 -2 -70 -17z"/>
<path d="M12575 12580 c-9 -14 40 -60 65 -60 11 0 20 6 20 13 0 29 -72 69 -85
47z"/>
<path d="M12292 12468 c-22 -22 -13 -36 29 -43 45 -8 63 2 57 31 -4 23 -66 32
-86 12z"/>
<path d="M12671 12366 c-102 -34 -186 -67 -189 -74 -2 -6 26 -2 70 12 272 85
384 128 321 125 -10 0 -101 -29 -202 -63z"/>
<path d="M13045 12289 c-63 -22 -91 -39 -62 -39 23 0 125 39 132 51 9 13 -2
11 -70 -12z"/>
<path d="M12939 12123 c-1 -5 -2 -26 -3 -47 -1 -39 -2 -40 -64 -65 -40 -15
-59 -28 -53 -34 13 -13 65 6 109 40 34 25 37 26 91 15 61 -13 77 -6 66 27 -10
32 -142 89 -146 64z"/>
<path d="M4785 12180 c-15 -24 52 -130 82 -130 27 0 3 70 -40 118 -22 24 -33
27 -42 12z"/>
<path d="M4546 11831 c-31 -32 -30 -53 3 -71 20 -10 21 -8 21 29 0 22 5 43 10
46 12 7 13 25 2 25 -5 0 -21 -13 -36 -29z"/>
<path d="M4405 11675 c-32 -31 -32 -55 -2 -55 13 0 34 -13 49 -30 31 -36 61
-40 56 -9 -3 22 -15 32 -52 43 -15 5 -17 12 -12 41 8 42 -5 45 -39 10z"/>
<path d="M6354 12800 c-38 -45 -79 -83 -91 -86 -36 -10 -27 -24 15 -24 36 0
39 3 80 70 33 53 51 72 78 82 37 13 43 23 18 32 -27 10 -30 8 -100 -74z"/>
<path d="M6530 12754 c-12 -19 -40 -46 -61 -60 -44 -28 -50 -44 -16 -44 32 0
96 58 107 97 12 46 -4 50 -30 7z"/>
<path d="M7258 12763 c-28 -31 -78 -116 -78 -132 0 -24 44 23 74 80 29 53 31
83 4 52z"/>
<path d="M6970 12677 c0 -25 26 -67 41 -67 14 0 11 27 -6 60 -18 36 -35 39
-35 7z"/>
<path d="M6436 12269 c-28 -33 -31 -44 -16 -54 18 -11 80 49 80 79 0 18 -42 2
-64 -25z"/>
<path d="M6728 12274 c-45 -24 -66 -84 -30 -84 15 0 92 79 92 94 0 11 -35 5
-62 -10z"/>
<path d="M6968 12245 c-9 -21 -9 -29 4 -41 13 -14 18 -13 46 11 43 36 42 55
-3 55 -28 0 -38 -5 -47 -25z"/>
<path d="M6200 11940 c-10 -6 44 -10 163 -10 116 0 176 3 172 10 -8 13 -315
13 -335 0z"/>
<path d="M11392 12789 c2 -24 8 -43 13 -41 15 3 12 75 -3 80 -10 3 -12 -7 -10
-39z"/>
<path d="M11870 12340 c-8 -5 -11 -12 -8 -16 9 -9 76 4 83 16 8 13 -55 13 -75
0z"/>
<path d="M11598 12277 c-37 -13 -71 -26 -75 -30 -16 -16 9 -17 53 -2 30 10 72
15 113 13 62 -3 66 -2 69 20 3 20 0 22 -45 22 -26 0 -78 -11 -115 -23z"/>
<path d="M12045 12173 c-299 -67 -462 -110 -453 -118 9 -9 502 106 517 121 5
5 -36 3 -64 -3z"/>
<path d="M11925 11950 c-143 -35 -218 -58 -190 -59 23 -1 298 63 335 78 l25
10 -25 0 c-14 -1 -79 -14 -145 -29z"/>
<path d="M12298 11893 l-3 -48 -58 -20 c-55 -19 -69 -36 -33 -43 10 -2 25 3
34 11 9 8 61 24 115 35 54 11 100 22 103 25 11 11 -8 28 -66 57 -81 41 -88 40
-92 -17z"/>
<path d="M11931 11811 c-27 -64 -26 -77 3 -85 54 -13 103 29 90 79 -6 26 -38
55 -60 55 -6 0 -21 -22 -33 -49z"/>
<path d="M12241 11614 c-134 -35 -246 -65 -249 -68 -3 -4 -3 -9 0 -12 7 -6
489 115 501 126 24 21 -29 12 -252 -46z"/>
<path d="M14650 12421 c0 -4 28 -28 63 -52 34 -24 72 -54 84 -68 20 -21 23
-22 29 -7 4 10 3 21 -2 25 -104 94 -127 111 -149 111 -14 0 -25 -4 -25 -9z"/>
<path d="M15127 11923 c-15 -14 -6 -43 18 -59 34 -22 42 -11 22 31 -16 34 -27
42 -40 28z"/>
<path d="M13890 12511 c0 -25 48 -63 74 -59 31 4 26 24 -13 53 -42 30 -61 32
-61 6z"/>
<path d="M13704 12429 c-8 -13 25 -99 37 -99 6 0 30 5 55 11 64 17 58 38 -21
71 -40 16 -67 23 -71 17z"/>
<path d="M14015 12249 c-177 -102 -216 -129 -183 -129 11 0 373 202 387 216 3
2 0 8 -5 13 -5 5 -87 -36 -199 -100z"/>
<path d="M14528 12029 c-20 -29 -39 -42 -76 -53 -27 -8 -71 -30 -98 -49 -65
-46 -133 -80 -149 -73 -7 2 -31 38 -54 79 -55 101 -62 105 -106 76 -43 -29
-44 -45 -6 -52 16 -4 58 -32 93 -63 58 -52 66 -56 103 -51 27 3 85 32 175 86
154 93 153 92 148 119 -2 16 -7 14 -30 -19z"/>
<path d="M14512 11755 c-49 -28 -99 -65 -87 -65 12 0 133 69 140 80 10 16 -7
11 -53 -15z"/>
<path d="M14827 11682 c-10 -10 -17 -23 -17 -28 0 -10 110 -37 118 -30 7 7 -8
45 -24 61 -21 20 -57 19 -77 -3z"/>
<path d="M14632 11580 c-43 -18 -23 -43 50 -64 37 -11 71 -17 74 -13 3 3 -2
23 -12 44 -16 32 -24 38 -54 40 -19 1 -45 -2 -58 -7z"/>
<path d="M15117 11326 c-202 -122 -346 -231 -220 -168 66 34 328 206 338 222
13 20 -13 8 -118 -54z"/>
<path d="M7540 12262 c0 -26 32 -53 66 -55 38 -3 46 34 12 57 -32 23 -78 21
-78 -2z"/>
<path d="M7360 11744 c-99 -10 -146 -11 -176 -3 -32 8 -48 8 -77 -5 -20 -8
-37 -19 -37 -25 0 -17 72 -175 88 -193 31 -36 238 -20 327 24 98 49 142 135
99 196 -18 26 -24 26 -224 6z m194 -26 c13 -49 6 -71 -37 -113 -54 -55 -132
-80 -223 -72 -95 7 -142 43 -147 111 l-2 29 190 32 c105 18 195 33 201 34 7 0
14 -9 18 -21z"/>
<path d="M11212 11991 c-34 -3 -62 -10 -63 -16 0 -24 92 -16 127 10 10 8 15
14 9 13 -5 -1 -38 -4 -73 -7z"/>
<path d="M11390 11823 c-19 -2 -104 -18 -188 -34 -167 -33 -234 -53 -142 -43
83 9 347 61 367 73 10 6 14 10 8 9 -5 -1 -26 -3 -45 -5z"/>
<path d="M11182 11654 c-22 -15 -27 -38 -16 -68 5 -12 21 -16 70 -16 35 0 64
4 64 9 0 7 -85 91 -93 91 -1 0 -13 -7 -25 -16z"/>
<path d="M11208 11380 c-230 -48 -272 -59 -252 -66 9 -4 425 77 477 92 16 5
25 25 10 23 -5 -1 -110 -23 -235 -49z"/>
<path d="M11235 11183 c-44 -11 -37 -23 14 -23 38 0 51 4 49 13 -5 13 -32 18
-63 10z"/>
<path d="M5447 12122 c-22 -24 -22 -30 9 -96 35 -76 27 -104 -45 -174 l-56
-55 42 7 c24 3 58 13 77 22 39 19 46 43 46 160 0 56 -4 77 -20 97 -11 14 -20
32 -20 41 0 21 -13 20 -33 -2z"/>
<path d="M4824 11678 c-4 -6 4 -19 20 -30 14 -11 38 -40 53 -66 37 -62 35
-119 -6 -200 -23 -46 -31 -75 -31 -116 0 -30 5 -58 11 -62 6 -3 23 5 37 19 44
41 126 77 177 77 49 0 85 25 85 59 0 18 -4 18 -100 -6 -129 -33 -134 -31 -124
50 15 116 -4 210 -51 261 -25 27 -59 34 -71 14z"/>
<path d="M4727 11538 c-38 -47 -71 -107 -64 -115 3 -2 29 30 57 72 57 85 62
110 7 43z"/>
<path d="M4722 11168 c6 -18 55 -44 65 -35 9 9 -35 46 -55 47 -8 0 -12 -6 -10
-12z"/>
<path d="M4486 11101 c-27 -33 -54 -62 -62 -65 -17 -7 -19 -36 -1 -36 11 1
127 140 127 154 0 18 -22 0 -64 -53z"/>
<path d="M4432 10928 c-14 -14 -16 -68 -3 -68 14 0 41 41 41 62 0 21 -20 24
-38 6z"/>
<path d="M4270 10805 c-13 -33 -42 -79 -63 -102 -35 -38 -37 -44 -21 -50 13
-5 26 4 50 31 45 52 66 100 62 144 l-3 37 -25 -60z"/>
<path d="M10167 12179 c-152 -26 -193 -40 -101 -34 69 5 263 40 272 50 10 10
-66 3 -171 -16z"/>
<path d="M10380 11640 c-52 -10 -117 -21 -145 -25 -39 -6 -46 -9 -30 -16 11
-4 38 -8 59 -8 43 -1 236 49 236 61 0 10 -4 9 -120 -12z"/>
<path d="M10020 11330 c0 -11 12 -44 27 -74 38 -78 30 -89 -60 -86 -39 2 -77
2 -83 1 -21 -2 -44 -80 -44 -150 0 -53 -4 -74 -20 -94 -11 -14 -20 -30 -20
-36 0 -19 36 -12 56 10 16 18 19 35 17 117 -3 124 -1 126 98 118 115 -10 130
15 89 148 -16 52 -25 66 -40 66 -13 0 -20 -7 -20 -20z"/>
<path d="M10426 11244 c-90 -17 -130 -33 -81 -34 36 0 198 26 240 39 50 15
-66 11 -159 -5z"/>
<path d="M10263 11019 c-62 -18 -38 -31 45 -24 42 4 79 9 81 11 19 17 -80 28
-126 13z"/>
<path d="M13523 11788 c-24 -12 -43 -25 -43 -29 0 -3 18 -9 39 -13 48 -7 95
-45 122 -97 22 -44 40 -48 124 -25 55 14 150 60 160 76 12 19 -22 10 -98 -25
-131 -60 -126 -61 -183 41 -27 49 -56 90 -64 91 -8 1 -34 -8 -57 -19z"/>
<path d="M13876 11461 c-138 -54 -252 -104 -254 -111 -3 -8 1 -11 9 -8 8 3
122 48 254 99 132 51 244 96 248 100 32 27 -40 4 -257 -80z"/>
<path d="M14155 11336 c-52 -17 -108 -46 -101 -53 3 -3 33 0 67 6 59 12 62 11
100 -14 22 -14 44 -23 49 -20 15 9 12 48 -6 73 -17 25 -48 27 -109 8z"/>
<path d="M13845 11221 c-51 -18 -125 -61 -125 -72 0 -4 42 3 94 14 l94 20 32
-27 c37 -30 50 -27 50 14 0 33 -40 70 -74 70 -11 -1 -44 -9 -71 -19z"/>
<path d="M13810 10961 c-59 -19 -103 -40 -83 -41 16 0 173 50 173 55 0 9 -36
4 -90 -14z"/>
<path d="M14507 10813 c-4 -3 -7 -19 -7 -34 0 -30 31 -59 62 -59 18 0 58 33
58 48 0 8 -83 52 -99 52 -4 0 -11 -3 -14 -7z"/>
<path d="M14200 10661 c-26 -52 -60 -77 -115 -85 -24 -4 -47 -11 -50 -17 -8
-12 -9 -12 112 16 112 27 133 37 133 64 0 17 -39 61 -53 61 -4 0 -16 -18 -27
-39z"/>
<path d="M14359 10680 c-14 -11 -18 -19 -11 -20 15 0 72 28 72 35 0 13 -40 3
-61 -15z"/>
<path d="M14326 10435 c-132 -50 -242 -97 -244 -103 -2 -7 0 -12 5 -12 9 0
485 180 492 187 3 2 0 7 -5 12 -5 5 -113 -32 -248 -84z"/>
<path d="M5377 10714 c-12 -13 -8 -51 8 -64 21 -18 47 5 43 39 -3 26 -35 41
-51 25z"/>
<path d="M5202 10158 c-16 -16 -15 -65 2 -71 19 -7 56 20 56 42 0 19 -18 41
-35 41 -6 0 -16 -5 -23 -12z"/>
<path d="M13125 10973 c-127 -34 -172 -53 -127 -53 12 0 56 11 99 25 43 14 87
25 98 25 10 0 38 -19 61 -41 50 -50 68 -45 59 15 -8 47 -21 66 -44 65 -9 0
-74 -16 -146 -36z"/>
<path d="M12725 10867 c-132 -49 -167 -76 -54 -43 70 21 118 20 191 -5 69 -23
78 -19 78 42 0 74 -27 75 -215 6z"/>
<path d="M12419 10784 c-12 -15 -8 -21 30 -55 59 -53 77 -51 85 7 3 25 3 50 0
55 -10 16 -100 10 -115 -7z"/>
<path d="M13004 10715 c-50 -13 -116 -34 -147 -45 -125 -47 -27 -35 133 16
169 54 178 72 14 29z"/>
<path d="M13480 10622 l-35 -16 28 -4 c28 -3 57 12 57 29 0 12 -9 10 -50 -9z"/>
<path d="M12675 10623 c-16 -3 -34 -9 -39 -14 -17 -15 48 -10 70 6 10 8 15 14
9 13 -5 0 -23 -3 -40 -5z"/>
<path d="M12801 10424 c-77 -17 -88 -24 -35 -24 46 0 111 17 119 30 8 12 -4
12 -84 -6z"/>
<path d="M13095 10338 c-11 -6 -38 -28 -60 -49 -48 -46 -100 -69 -155 -69 -39
0 -63 -20 -46 -37 4 -4 57 5 119 20 62 15 130 27 153 27 46 0 107 34 112 64 9
45 -70 73 -123 44z"/>
<path d="M15436 10995 c-114 -68 -263 -184 -239 -185 26 0 327 218 302 220 -3
0 -31 -16 -63 -35z"/>
<path d="M15677 10686 c5 -51 4 -57 -25 -85 -37 -38 -61 -39 -92 -6 -27 29
-50 33 -49 8 2 -38 25 -117 34 -120 13 -4 260 199 258 211 -2 8 -104 45 -125
46 -4 0 -4 -24 -1 -54z"/>
<path d="M15300 10495 c0 -25 43 -105 57 -105 18 0 143 63 143 72 0 13 -13 9
-45 -12 -43 -29 -59 -25 -95 20 -32 40 -60 52 -60 25z"/>
<path d="M15682 10334 c-84 -57 -184 -143 -145 -125 49 24 249 181 231 181 -2
0 -41 -25 -86 -56z"/>
<path d="M15882 10199 c-50 -37 -54 -53 -11 -44 26 6 36 2 65 -26 18 -18 36
-30 39 -27 5 5 -32 106 -45 121 -3 4 -25 -7 -48 -24z"/>
<path d="M15720 10081 c-19 -11 -43 -28 -53 -39 -18 -20 -18 -20 22 -15 38 5
44 3 76 -32 29 -32 35 -36 41 -21 10 25 -18 120 -36 123 -8 1 -31 -6 -50 -16z"/>
<path d="M15838 9902 c-135 -100 -179 -142 -152 -142 15 0 333 244 328 252 -3
4 -8 8 -12 7 -4 0 -78 -53 -164 -117z"/>
<path d="M15944 9701 c-69 -45 -144 -110 -128 -111 14 0 114 66 164 108 53 45
31 47 -36 3z"/>
<path d="M11960 10895 c-225 -36 -623 -128 -574 -133 52 -5 619 113 662 138
21 12 18 11 -88 -5z"/>
<path d="M11237 10743 c-12 -12 -7 -43 6 -43 14 0 47 31 47 43 0 9 -45 9 -53
0z"/>
<path d="M11997 10692 c-25 -27 -22 -34 31 -69 57 -40 70 -41 82 -8 26 67 -66
129 -113 77z"/>
<path d="M11726 10632 c-5 -9 52 -57 59 -50 2 2 6 15 10 31 7 26 5 27 -28 27
-20 0 -38 -4 -41 -8z"/>
<path d="M11890 10437 c-138 -30 -142 -32 -90 -35 34 -2 78 4 120 17 36 11 86
23 113 26 26 3 47 10 47 16 0 14 -32 10 -190 -24z"/>
<path d="M11620 10384 c-47 -7 -104 -18 -127 -23 -23 -6 -69 -11 -103 -11 -45
0 -62 -4 -67 -15 -3 -9 -3 -19 1 -22 6 -6 150 16 253 39 51 12 55 11 114 -20
4 -1 9 5 12 15 2 10 8 26 12 36 4 9 3 16 -1 16 -5 -1 -47 -8 -94 -15z"/>
<path d="M11857 10203 c-64 -15 -115 -28 -112 -31 8 -9 224 30 242 44 25 19
11 17 -130 -13z"/>
<path d="M11698 10163 c6 -2 18 -2 25 0 6 3 1 5 -13 5 -14 0 -19 -2 -12 -5z"/>
<path d="M11426 10153 c-10 -10 -7 -51 3 -58 10 -5 31 24 31 43 0 12 -26 23
-34 15z"/>
<path d="M11591 10139 c-22 -9 -23 -11 -9 -26 19 -18 33 -12 41 17 6 22 3 23
-32 9z"/>
<path d="M12206 10096 c-16 -39 -60 -66 -105 -66 -40 0 -49 -17 -16 -30 37
-14 40 -13 75 16 l31 26 50 -31 c28 -17 54 -31 60 -31 5 0 22 27 39 60 33 66
35 63 -40 79 -70 16 -78 14 -94 -23z"/>
<path d="M12420 10114 c0 -15 22 -44 35 -44 23 0 29 22 10 37 -19 13 -45 18
-45 7z"/>
<path d="M11726 10005 c-35 -45 -82 -68 -183 -90 -46 -10 -83 -21 -83 -25 0
-18 32 -17 91 1 34 11 96 22 136 26 73 6 74 6 107 -26 36 -35 46 -32 46 11 0
52 -49 138 -79 138 -5 0 -21 -16 -35 -35z"/>
<path d="M11956 10005 c-20 -20 -21 -35 -2 -35 21 0 41 29 29 41 -7 7 -16 5
-27 -6z"/>
<path d="M12545 9910 c-16 -5 -74 -18 -127 -30 -66 -15 -98 -27 -98 -36 0 -19
21 -18 151 12 117 26 136 34 125 53 -8 12 -9 12 -51 1z"/>
<path d="M12125 9814 c-19 -10 -48 -14 -79 -12 -56 3 -73 -15 -32 -33 21 -10
33 -9 63 4 21 9 67 20 102 26 36 6 69 15 75 21 17 17 -95 12 -129 -6z"/>
<path d="M12603 9695 c-34 -8 -70 -19 -80 -25 -30 -19 86 -2 132 20 48 22 32
23 -52 5z"/>
<path d="M12454 9650 c-51 -12 -66 -19 -59 -30 6 -10 71 12 90 31 5 5 7 9 5 8
-3 -1 -19 -4 -36 -9z"/>
<path d="M12230 9605 c-19 -7 -60 -14 -91 -14 -54 -1 -165 -31 -142 -38 6 -2
75 7 154 22 79 14 147 25 151 25 4 0 8 5 8 10 0 14 -38 11 -80 -5z"/>
<path d="M11900 9540 c0 -11 14 -11 50 0 22 7 21 8 -12 9 -21 1 -38 -3 -38 -9z"/>
<path d="M12396 9528 c-9 -13 -16 -43 -16 -70 l0 -47 -60 -22 c-33 -12 -60
-26 -60 -31 0 -14 59 -2 116 22 42 18 46 19 79 3 46 -22 60 -9 42 38 -8 19
-22 55 -31 82 -20 53 -44 62 -70 25z"/>
<path d="M11687 9490 c-76 -16 -141 -31 -144 -34 -21 -20 158 9 264 43 81 27
41 23 -120 -9z"/>
<path d="M11886 9421 c-17 -19 -17 -20 3 -30 23 -13 91 -15 91 -3 0 4 -7 18
-16 30 -19 27 -55 28 -78 3z"/>
<path d="M12135 9340 c-3 -6 1 -13 9 -16 22 -8 68 4 61 16 -8 13 -62 13 -70 0z"/>
<path d="M11870 9294 c-66 -17 -117 -24 -165 -22 -65 2 -70 1 -67 -17 7 -45
11 -47 38 -26 21 16 41 21 93 21 39 0 78 6 95 15 15 8 48 15 73 15 46 0 83 14
83 30 0 15 -46 10 -150 -16z"/>
<path d="M7793 10729 c-68 -34 -85 -62 -118 -198 l-29 -123 23 -19 c28 -23 40
-20 138 28 69 34 153 100 153 119 0 5 -4 15 -9 23 -7 10 -18 4 -49 -27 -46
-46 -123 -89 -168 -94 -28 -3 -29 -2 -26 40 4 64 40 151 82 195 31 34 43 40
81 41 42 1 44 0 57 -39 16 -48 21 -53 32 -35 16 25 11 76 -8 93 -27 24 -107
22 -159 -4z"/>
<path d="M10391 10611 c-365 -54 -516 -80 -519 -90 -3 -10 3 -12 24 -7 16 3
250 38 519 77 270 39 494 75 498 79 5 4 5 10 0 12 -4 3 -239 -29 -522 -71z"/>
<path d="M10772 10451 c-233 -35 -259 -55 -155 -121 61 -39 73 -38 73 3 0 76
71 112 223 112 81 0 97 2 95 15 -5 22 -34 21 -236 -9z"/>
<path d="M10070 10345 c-41 -7 -81 -10 -88 -8 -13 6 -42 -14 -42 -28 0 -5 24
-9 53 -9 49 0 56 -3 97 -45 46 -47 85 -59 94 -27 2 9 6 42 8 72 3 53 2 55 -22
56 -14 1 -59 -4 -100 -11z"/>
<path d="M10785 10237 c-143 -23 -266 -46 -273 -50 -10 -7 -10 -12 -1 -23 15
-18 44 -18 63 1 25 26 69 37 143 36 45 0 85 5 110 16 23 10 80 19 143 22 84 5
105 9 105 21 0 8 -7 16 -15 16 -8 1 -132 -16 -275 -39z"/>
<path d="M10375 10161 c-31 -14 -36 -20 -23 -25 14 -7 98 27 98 39 0 11 -37 4
-75 -14z"/>
<path d="M10165 10141 c-7 -12 52 -54 65 -46 18 11 11 43 -12 49 -32 8 -46 7
-53 -3z"/>
<path d="M9975 10101 c-8 -13 43 -34 63 -26 7 3 12 11 10 18 -6 15 -64 22 -73
8z"/>
<path d="M10727 10002 c-189 -32 -336 -60 -334 -66 9 -26 35 -28 65 -6 23 17
51 25 114 30 46 5 127 16 182 25 54 10 117 15 139 12 29 -4 52 0 80 15 22 11
64 22 94 25 59 6 84 24 31 22 -18 -1 -185 -27 -371 -57z"/>
<path d="M10050 9925 c-23 -28 -87 -55 -130 -55 -26 0 -43 -5 -46 -15 -10 -24
4 -35 32 -25 13 5 86 21 162 35 128 23 238 52 229 61 -2 2 -49 -2 -105 -9 -98
-13 -102 -13 -115 6 -12 18 -14 18 -27 2z"/>
<path d="M11137 9884 c-14 -14 -7 -62 13 -85 l20 -24 -6 40 c-9 54 -18 77 -27
69z"/>
<path d="M10718 9845 c-50 -28 -46 -51 21 -119 72 -73 92 -117 121 -261 12
-60 26 -115 32 -122 15 -18 49 -16 158 8 52 12 130 25 173 29 51 5 84 13 95
23 9 9 14 18 11 21 -2 2 -87 -13 -189 -35 -102 -21 -190 -39 -197 -39 -7 0
-23 10 -37 23 -23 20 -26 32 -32 117 -4 52 -11 101 -16 107 -6 7 -18 54 -29
105 -28 143 -32 153 -60 155 -13 2 -36 -4 -51 -12z"/>
<path d="M10950 9822 c0 -26 27 -49 41 -35 17 17 6 48 -19 51 -16 3 -22 -2
-22 -16z"/>
<path d="M10520 9748 c-125 -9 -144 -13 -135 -28 7 -11 147 -14 219 -4 28 4
46 12 46 20 0 20 -7 20 -130 12z"/>
<path d="M10165 9732 c-31 -7 -65 -33 -65 -49 0 -11 7 -13 25 -9 14 4 47 -1
74 -10 44 -14 52 -14 86 1 85 35 83 37 -80 68 -11 2 -29 2 -40 -1z"/>
<path d="M11160 9625 c-151 -24 -165 -29 -168 -53 -4 -27 -4 -27 105 -2 114
27 183 49 183 61 0 11 -13 10 -120 -6z"/>
<path d="M9447 10513 c-12 -20 -18 -81 -8 -87 13 -8 31 25 31 58 0 25 -15 43
-23 29z"/>
<path d="M8940 10420 c-11 -7 -7 -10 20 -11 70 -4 165 3 175 12 13 12 -176 11
-195 -1z"/>
<path d="M9052 10221 c-42 -16 -59 -18 -80 -10 -15 6 -46 8 -69 4 -26 -4 -49
-1 -62 6 -23 15 -51 -2 -51 -32 0 -16 7 -19 48 -18 26 0 74 4 107 8 l60 8 37
-40 c20 -21 41 -37 46 -36 17 7 125 110 120 115 -16 16 -107 13 -156 -5z"/>
<path d="M9331 10092 c-1 -13 -6 -32 -11 -42 -8 -15 -6 -21 9 -30 11 -5 22
-10 25 -10 11 0 5 45 -9 75 -12 28 -13 28 -14 7z"/>
<path d="M9462 10054 c-47 -33 10 -47 76 -18 36 16 37 17 12 24 -40 13 -64 11
-88 -6z"/>
<path d="M8666 9972 c-83 -11 -114 -12 -127 -3 -26 16 -46 14 -53 -6 -14 -35
10 -37 166 -19 174 20 198 25 198 37 0 12 -52 9 -184 -9z"/>
<path d="M8625 9751 c-7 -13 2 -17 50 -25 22 -4 52 -3 65 2 l25 10 -28 11
c-34 13 -104 14 -112 2z"/>
<path d="M4080 9951 c0 -9 72 -41 93 -41 6 0 -1 11 -18 25 -29 24 -75 34 -75
16z"/>
<path d="M14960 10446 c-52 -20 -138 -64 -145 -76 -8 -13 -7 -13 56 9 58 20
159 68 159 76 0 9 -34 4 -70 -9z"/>
<path d="M15050 10378 c0 -7 9 -32 19 -55 11 -23 17 -51 14 -62 -7 -28 20 -28
47 -1 16 16 18 24 9 47 -14 36 -27 51 -61 69 -22 11 -28 12 -28 2z"/>
<path d="M14695 10325 l-50 -23 35 -1 c31 -1 100 30 100 44 0 11 -38 3 -85
-20z"/>
<path d="M14770 10255 c0 -8 9 -37 19 -65 14 -36 16 -52 7 -59 -6 -5 -51 -26
-99 -46 -105 -43 -127 -41 -182 15 -48 50 -70 53 -61 9 12 -62 44 -119 65
-119 18 0 346 141 359 154 6 7 -87 126 -99 126 -5 0 -9 -7 -9 -15z"/>
<path d="M15291 9806 c-15 -18 -9 -41 22 -80 34 -42 47 -28 33 36 -12 55 -32
71 -55 44z"/>
<path d="M14542 9771 c-56 -19 -69 -27 -59 -37 8 -8 111 25 134 42 17 13 17
13 -2 13 -11 0 -44 -8 -73 -18z"/>
<path d="M15123 9760 c-45 -20 -61 -47 -20 -34 54 16 107 54 75 54 -7 0 -32
-9 -55 -20z"/>
<path d="M15010 9653 c0 -56 39 -118 61 -96 19 19 -18 143 -42 143 -16 0 -19
-8 -19 -47z"/>
<path d="M15052 9487 c-259 -112 -422 -187 -422 -196 0 -7 6 -11 13 -8 85 34
834 360 840 367 33 31 -60 -4 -431 -163z"/>
<path d="M14684 9565 c-33 -51 1 -145 53 -145 27 0 26 -3 12 95 -10 62 -15 75
-30 75 -10 0 -26 -11 -35 -25z"/>
<path d="M15435 9391 c-113 -48 -212 -97 -220 -111 -13 -20 283 114 310 141
14 14 8 12 -90 -30z"/>
<path d="M15497 9182 c-34 -38 -6 -109 40 -100 15 3 18 13 18 58 0 48 -3 55
-21 58 -11 2 -28 -6 -37 -16z"/>
<path d="M14920 9167 c-72 -26 -132 -56 -112 -57 19 0 171 60 177 71 8 12 11
12 -65 -14z"/>
<path d="M15344 9096 c-40 -18 -52 -36 -24 -36 20 0 100 36 100 45 0 10 -46 4
-76 -9z"/>
<path d="M15193 9053 c-19 -7 -16 -28 12 -84 35 -67 60 -65 60 6 1 28 5 58 9
68 7 15 3 17 -30 16 -22 0 -45 -3 -51 -6z"/>
<path d="M15053 8963 c-32 -16 -44 -33 -23 -33 21 0 80 29 80 39 0 15 -19 13
-57 -6z"/>
<path d="M14860 8914 c-10 -11 -11 -25 -4 -51 17 -69 74 -73 74 -5 0 57 -42
91 -70 56z"/>
<path d="M13438 9903 c-241 -70 -438 -131 -438 -136 0 -14 32 -6 474 121 225
65 411 123 414 130 2 6 0 12 -5 11 -4 0 -205 -57 -445 -126z"/>
<path d="M4434 9635 c-9 -14 -13 -32 -10 -41 6 -15 8 -15 26 1 21 19 28 65 10
65 -5 0 -17 -11 -26 -25z"/>
<path d="M13743 9512 c-386 -118 -482 -152 -430 -152 7 0 212 61 457 135 244
74 445 135 447 135 2 0 3 5 3 10 0 6 -8 10 -17 9 -10 -1 -217 -62 -460 -137z"/>
<path d="M14193 9400 c-79 -21 -176 -60 -168 -68 2 -3 56 10 118 28 68 20 124
30 138 27 16 -4 32 -22 47 -52 16 -33 28 -45 40 -43 24 4 29 72 7 104 -13 20
-23 24 -63 23 -26 0 -79 -9 -119 -19z"/>
<path d="M13901 9291 c-11 -7 -6 -22 24 -75 54 -97 83 -88 68 20 -8 58 -8 59
-43 62 -19 1 -41 -2 -49 -7z"/>
<path d="M13860 9066 c-299 -90 -546 -169 -548 -176 -3 -8 2 -10 14 -6 11 3
255 75 544 161 289 86 533 158 543 161 19 6 23 24 5 23 -7 0 -258 -74 -558
-163z"/>
<path d="M16156 9306 c-46 -40 -48 -44 -28 -50 12 -4 25 -18 28 -32 10 -39 22
-28 44 42 31 102 28 104 -44 40z"/>
<path d="M16084 9250 c-5 -5 -45 -29 -88 -54 -56 -32 -75 -47 -63 -51 18 -7
109 48 146 89 23 24 27 38 5 16z"/>
<path d="M16104 9095 c-7 -17 32 -81 54 -90 15 -6 9 21 -14 67 -18 35 -33 43
-40 23z"/>
<path d="M16020 8916 c0 -18 37 -63 45 -54 8 8 -22 68 -35 68 -6 0 -10 -6 -10
-14z"/>
<path d="M16172 8898 c-1 -10 -16 -33 -33 -53 -29 -32 -30 -38 -19 -64 13 -32
38 -47 52 -33 5 5 7 44 5 88 -1 43 -4 71 -5 62z"/>
<path d="M16062 8728 c-14 -14 -16 -48 -3 -48 17 0 40 30 35 45 -7 18 -16 19
-32 3z"/>
<path d="M16130 8577 c0 -33 73 -207 86 -207 4 0 3 16 -1 37 -8 45 -65 173
-76 173 -5 0 -9 -1 -9 -3z"/>
<path d="M16197 8287 c-21 -51 -21 -67 -2 -67 18 0 41 72 29 93 -7 13 -13 7
-27 -26z"/>
<path d="M16214 8133 c2 -10 10 -51 17 -91 7 -40 17 -76 22 -79 14 -8 3 125
-13 160 -15 30 -34 37 -26 10z"/>
<path d="M9101 9621 c-33 -9 -37 -28 -45 -227 -6 -146 -5 -172 8 -183 20 -17
66 4 83 39 15 30 17 112 3 177 -10 45 -8 54 20 116 17 37 28 72 25 77 -7 11
-57 12 -94 1z m33 -295 c-9 -29 -24 -46 -40 -46 -18 0 -20 96 -1 103 19 8 48
-33 41 -57z"/>
<path d="M9360 9380 c0 -14 43 -80 53 -80 11 0 9 48 -3 71 -11 20 -50 27 -50
9z"/>
<path d="M8600 9304 c-105 -22 -110 -24 -110 -36 0 -7 18 -9 58 -5 65 7 152
34 152 48 0 12 -20 10 -100 -7z"/>
<path d="M11998 8847 c-54 -18 -98 -35 -98 -38 0 -4 19 -9 41 -13 41 -7 80
-38 120 -96 24 -37 47 -20 55 40 4 28 17 67 31 86 13 20 21 40 18 45 -11 17
-69 8 -167 -24z"/>
<path d="M12340 8688 c-63 -16 -117 -31 -119 -34 -14 -13 17 -13 97 1 111 19
152 33 152 51 0 17 9 18 -130 -18z"/>
<path d="M12110 8620 c0 -6 9 -20 20 -32 17 -19 20 -19 26 -5 3 10 4 24 0 32
-6 17 -46 21 -46 5z"/>
<path d="M12523 8473 c-18 -7 -16 -32 2 -40 15 -5 44 21 45 40 0 8 -28 8 -47
0z"/>
<path d="M12343 8450 c-31 -12 -29 -22 7 -43 30 -18 30 -18 40 8 16 43 0 54
-47 35z"/>
<path d="M12180 8404 c-176 -42 -262 -55 -312 -48 -51 6 -69 -10 -24 -22 56
-14 330 37 427 80 47 20 30 18 -91 -10z"/>
<path d="M12701 8307 c-42 -21 -48 -43 -26 -85 27 -49 70 -57 86 -15 13 33 5
93 -13 105 -17 10 -19 10 -47 -5z"/>
<path d="M12455 8224 c-55 -8 -147 -21 -205 -29 -188 -27 -320 -85 -177 -77
52 3 59 0 95 -33 44 -39 45 -39 81 32 26 51 53 61 270 91 30 4 56 13 59 20 4
14 10 14 -123 -4z"/>
<path d="M12596 8011 c-10 -11 -13 -22 -8 -25 11 -7 72 24 72 37 0 15 -48 6
-64 -12z"/>
<path d="M12442 7980 c-37 -9 -49 -17 -39 -27 10 -9 98 10 98 22 0 13 -19 15
-59 5z"/>
<path d="M12220 7937 l-35 -12 51 -3 c30 -2 66 3 85 12 l34 14 -50 0 c-27 0
-66 -5 -85 -11z"/>
<path d="M12991 7859 c-18 -6 -31 -13 -28 -16 8 -7 88 5 107 17 20 13 -32 12
-79 -1z"/>
<path d="M12833 7829 c-45 -13 -55 -33 -12 -24 43 10 79 23 79 30 0 7 -30 5
-67 -6z"/>
<path d="M12662 7780 c-29 -4 -56 -11 -60 -15 -11 -12 110 3 121 14 6 6 7 10
2 10 -6 -1 -34 -5 -63 -9z"/>
<path d="M12990 7605 c-14 -7 -91 -26 -172 -41 -81 -15 -146 -29 -144 -32 16
-16 376 54 400 78 16 16 -55 12 -84 -5z"/>
<path d="M12511 7511 c-7 -5 -11 -13 -7 -19 7 -12 62 3 72 19 7 12 -47 12 -65
0z"/>
<path d="M12825 7330 c-14 -6 -2 -8 38 -7 31 0 57 4 57 9 0 10 -69 9 -95 -2z"/>
<path d="M12695 7300 c-16 -7 -11 -9 20 -9 22 0 47 4 55 9 19 13 -46 13 -75 0z"/>
<path d="M15686 8749 c-15 -12 -25 -23 -22 -26 5 -6 63 24 71 37 11 18 -22 11
-49 -11z"/>
<path d="M15330 8419 c-24 -44 23 -125 57 -97 30 25 0 117 -39 118 -4 0 -12
-9 -18 -21z"/>
<path d="M15895 8351 c-127 -46 -215 -107 -215 -151 0 -55 53 -43 83 19 7 15
54 54 107 89 101 66 104 72 25 43z"/>
<path d="M15870 8131 c0 -10 7 -35 15 -55 9 -20 22 -113 30 -218 23 -268 57
-489 98 -628 13 -45 39 -61 45 -28 2 9 -29 193 -68 410 -55 306 -69 398 -60
416 16 36 12 55 -19 90 -34 37 -41 39 -41 13z"/>
<path d="M15414 7746 c-10 -26 1 -51 21 -51 23 0 32 30 15 50 -16 19 -29 19
-36 1z"/>
<path d="M15826 7096 c-20 -31 -21 -76 -2 -102 14 -18 15 -18 22 10 6 26 9 28
45 22 47 -7 50 5 16 55 -29 43 -59 48 -81 15z"/>
<path d="M7700 7851 c-13 -25 -13 -71 0 -71 17 0 39 45 33 68 -7 27 -19 28
-33 3z"/>
<path d="M7665 7600 l-50 -18 29 -11 c41 -16 96 4 96 35 0 18 -13 17 -75 -6z"/>
<path d="M7704 7375 c-4 -8 -1 -22 6 -29 6 -8 15 -27 19 -43 8 -26 9 -25 16
19 4 26 4 51 0 57 -9 16 -35 13 -41 -4z"/>
<path d="M7591 7358 c-24 -7 -31 -12 -23 -20 11 -11 67 5 78 23 6 11 -11 10
-55 -3z"/>
<path d="M7553 7133 c-24 -5 -33 -33 -10 -33 6 0 37 6 67 13 37 9 67 10 89 4
38 -9 97 -2 106 13 6 10 -205 12 -252 3z"/>
<path d="M7597 6914 c-16 -17 -4 -24 40 -24 28 0 43 4 38 9 -14 13 -70 23 -78
15z"/>
<path d="M14473 8770 c-18 -11 -33 -24 -33 -30 0 -18 96 -12 120 8 50 40 -27
59 -87 22z"/>
<path d="M14104 8698 c4 -18 13 -39 21 -47 23 -23 30 10 10 48 -21 41 -39 41
-31 -1z"/>
<path d="M14478 8513 c-37 -15 -51 -33 -25 -33 16 1 97 37 97 45 0 9 -34 4
-72 -12z"/>
<path d="M13764 7885 c-8 -32 1 -69 22 -90 21 -20 35 -15 54 18 13 23 13 30
-3 61 -21 45 -63 51 -73 11z"/>
<path d="M10493 8357 c-67 -10 -80 -22 -37 -33 29 -7 90 8 119 30 20 15 20 15
0 14 -11 0 -48 -5 -82 -11z"/>
<path d="M11065 7998 c-27 -14 -45 -38 -45 -60 0 -14 97 -98 115 -98 3 0 5 34
5 75 0 63 -3 76 -19 85 -24 12 -31 12 -56 -2z"/>
<path d="M10460 7893 c-32 -11 -40 -34 -24 -64 16 -31 42 -49 72 -49 28 0 41
20 48 74 l7 46 -44 -1 c-24 0 -51 -3 -59 -6z"/>
<path d="M10280 7848 c-55 -15 -57 -26 -4 -26 51 1 84 12 84 28 0 12 -34 11
-80 -2z"/>
<path d="M11329 7782 c-30 -25 -13 -33 30 -15 27 11 31 17 20 24 -20 12 -24
11 -50 -9z"/>
<path d="M10955 7714 c-44 -8 -93 -19 -110 -23 l-30 -9 36 -1 c36 -1 260 36
268 45 9 9 -86 2 -164 -12z"/>
<path d="M10582 7658 c-16 -16 -15 -48 1 -48 11 0 37 39 37 55 0 10 -26 5 -38
-7z"/>
<path d="M10380 7615 c-20 -24 -2 -35 30 -17 17 9 30 20 30 25 0 13 -47 7 -60
-8z"/>
<path d="M10023 7591 c-88 -15 -53 -24 67 -18 169 9 224 25 80 25 -58 0 -124
-4 -147 -7z"/>
<path d="M11269 7525 c-48 -8 -102 -18 -120 -24 -32 -8 -30 -9 27 -10 64 -1
239 25 264 40 22 13 -70 9 -171 -6z"/>
<path d="M10520 7406 c-217 -33 -383 -62 -368 -64 14 -2 32 -10 38 -18 16 -18
25 -18 58 5 37 26 526 99 552 83 14 -9 21 -7 35 8 9 10 35 21 58 24 51 8 86
26 47 25 -14 -1 -203 -29 -420 -63z"/>
<path d="M11137 7342 c-10 -10 -17 -25 -17 -33 0 -31 -22 -42 -149 -74 -73
-18 -135 -36 -138 -39 -11 -11 28 -6 83 10 30 8 114 21 187 28 l132 12 -3 44
c-2 25 -8 51 -14 58 -15 18 -62 15 -81 -6z"/>
<path d="M10540 7248 c-11 -12 -20 -32 -20 -45 0 -30 42 -73 70 -73 28 0 70
43 70 73 0 33 -35 67 -70 67 -17 0 -38 -9 -50 -22z"/>
<path d="M10370 7149 c-25 -4 -64 -8 -87 -8 -23 -1 -45 -6 -49 -13 -5 -8 16
-9 84 -4 84 6 93 5 112 -14 13 -13 20 -34 21 -62 1 -59 17 -20 18 43 1 68 -9
74 -99 58z"/>
<path d="M11660 7101 c-26 -6 -31 -9 -19 -15 23 -10 104 -3 102 9 -3 13 -38
15 -83 6z"/>
<path d="M11155 7021 c-75 -6 -95 -14 -95 -37 0 -17 10 -18 47 -3 15 6 64 14
107 18 50 4 81 11 84 19 4 13 -17 13 -143 3z"/>
<path d="M10773 6963 c-61 -18 -72 -38 -15 -29 58 10 65 10 90 2 21 -7 23 -5
20 16 -4 29 -27 32 -95 11z"/>
<path d="M10471 6919 c-48 -9 -79 -29 -45 -29 39 0 149 21 159 31 11 11 -52
10 -114 -2z"/>
<path d="M10288 6893 c-12 -3 -18 -14 -18 -34 0 -36 13 -38 28 -4 8 17 20 25
37 25 14 0 25 5 25 10 0 10 -40 12 -72 3z"/>
<path d="M10060 6848 c0 -17 5 -20 29 -15 16 3 44 12 62 20 l34 14 -62 1 c-57
0 -63 -2 -63 -20z"/>
<path d="M8190 8580 c0 -6 58 -10 160 -10 145 0 162 -2 179 -19 16 -16 19 -28
14 -58 -4 -26 -2 -35 5 -28 6 6 12 35 14 65 l3 55 -187 3 c-123 2 -188 -1
-188 -8z"/>
<path d="M9656 8483 c-7 -8 -185 -24 -292 -26 -37 -1 -68 -8 -79 -17 -13 -11
-40 -14 -109 -12 -88 3 -262 -20 -279 -37 -4 -4 -2 -13 6 -19 10 -9 27 -7 70
8 61 21 159 26 201 10 22 -8 26 -16 26 -48 0 -21 5 -43 12 -50 14 -14 94 -16
102 -3 3 5 -1 29 -10 55 -12 36 -13 50 -4 60 13 17 71 28 160 31 155 6 230 21
230 46 0 11 -24 12 -34 2z"/>
<path d="M8537 8394 c-22 -22 29 -89 102 -136 63 -40 87 -37 101 10 16 57 23
112 15 112 -4 0 -40 -12 -79 -26 l-71 -25 -30 36 c-17 20 -34 33 -38 29z"/>
<path d="M9490 8336 c0 -25 5 -46 10 -46 6 0 10 18 10 39 0 22 -4 43 -10 46
-6 4 -10 -12 -10 -39z"/>
<path d="M8215 8339 c-11 -17 1 -21 46 -14 29 5 38 10 28 16 -19 12 -66 11
-74 -2z"/>
<path d="M9682 8268 c-18 -18 -15 -32 14 -59 l26 -24 -7 40 c-9 48 -17 59 -33
43z"/>
<path d="M8923 8174 c-9 -23 13 -40 32 -24 8 7 15 19 15 26 0 19 -39 18 -47
-2z"/>
<path d="M9100 8180 c0 -13 140 -13 160 0 10 7 -12 10 -72 10 -52 0 -88 -4
-88 -10z"/>
<path d="M8565 8140 c-11 -18 13 -36 31 -25 9 6 16 15 17 20 3 14 -40 18 -48
5z"/>
<path d="M8773 8143 c-19 -7 -15 -33 5 -33 9 0 28 9 42 20 l25 20 -30 -1 c-16
0 -36 -3 -42 -6z"/>
<path d="M8315 8118 c-185 -13 -202 -23 -45 -26 148 -3 175 0 184 23 3 8 2 14
-2 13 -4 -1 -65 -5 -137 -10z"/>
<path d="M9500 7991 c-30 -4 -41 -9 -32 -14 17 -11 174 2 166 14 -6 10 -62 10
-134 0z"/>
<path d="M8951 7939 c-41 -5 -77 -12 -80 -15 -9 -10 160 5 178 16 20 11 10 11
-98 -1z"/>
<path d="M8395 7871 c-3 -6 0 -31 6 -56 6 -25 9 -71 6 -101 -4 -40 -2 -54 6
-51 7 2 12 11 11 20 0 10 -1 58 -2 107 -2 81 -10 107 -27 81z"/>
<path d="M9685 7779 c-11 -17 1 -21 34 -14 17 4 29 11 25 16 -7 12 -51 11 -59
-2z"/>
<path d="M9490 7754 c-36 -7 -97 -13 -137 -14 -39 0 -84 -5 -100 -12 -17 -7
-77 -11 -155 -10 -70 1 -129 -2 -132 -6 -5 -8 254 -32 334 -32 19 0 62 14 94
30 47 24 72 30 122 30 50 0 64 3 64 15 0 17 -3 17 -90 -1z"/>
<path d="M8703 7680 c-13 -5 -23 -16 -23 -25 0 -17 56 -55 81 -55 16 0 39 38
39 64 0 25 -53 34 -97 16z"/>
<path d="M8513 7673 c-13 -2 -23 -9 -23 -15 0 -7 16 -8 46 -4 26 3 53 6 60 6
8 0 14 5 14 10 0 10 -53 11 -97 3z"/>
<path d="M8155 7661 c-41 -10 -75 -29 -75 -43 0 -17 73 -78 93 -78 27 0 150
91 139 102 -11 11 -78 28 -107 27 -11 -1 -33 -4 -50 -8z"/>
<path d="M9190 7493 c-80 -7 -181 -20 -225 -27 l-80 -14 55 -1 c68 -1 366 26
469 44 l76 13 -75 0 c-41 0 -140 -7 -220 -15z"/>
<path d="M8530 7430 c-156 -9 -319 -30 -326 -41 -8 -14 90 -11 201 6 55 9 165
18 245 22 86 4 135 10 120 14 -30 8 -75 8 -240 -1z"/>
<path d="M9235 7255 c-369 -32 -624 -71 -390 -59 208 10 692 58 704 70 8 8
-165 1 -314 -11z"/>
<path d="M8252 7168 c-24 -5 -42 -11 -40 -13 5 -5 292 15 297 21 9 8 -215 2
-257 -8z"/>
<path d="M8040 7140 c0 -6 19 -7 48 -3 64 8 66 13 4 13 -29 0 -52 -4 -52 -10z"/>
<path d="M9331 7083 c-22 -78 -23 -77 84 -69 53 3 126 13 163 20 37 8 80 12
96 9 31 -6 52 13 35 33 -7 9 -22 7 -62 -8 -77 -29 -159 -22 -227 20 -28 18
-58 32 -65 32 -8 0 -19 -17 -24 -37z"/>
<path d="M8769 7021 c-20 -16 -21 -21 -10 -35 9 -10 29 -16 56 -16 27 0 47 6
56 16 11 14 10 19 -10 35 -13 11 -33 19 -46 19 -13 0 -33 -8 -46 -19z"/>
<path d="M9220 7021 c-24 -10 -46 -23 -48 -30 -3 -9 2 -9 21 0 39 18 52 6 66
-55 7 -31 17 -56 22 -56 13 0 7 153 -6 156 -5 2 -30 -5 -55 -15z"/>
<path d="M8493 6999 c-6 -15 -15 -43 -18 -63 -6 -29 -4 -36 9 -36 22 0 28 18
24 76 -3 47 -4 48 -15 23z"/>
<path d="M9581 6805 c-23 -10 -70 -15 -150 -15 -64 0 -156 -5 -206 -11 -49 -6
-156 -14 -238 -18 -82 -3 -148 -10 -150 -16 -3 -13 304 -7 403 8 41 6 125 12
185 13 66 1 123 7 142 15 26 10 42 11 75 2 48 -13 58 -10 58 18 0 16 -7 19
-42 19 -24 -1 -58 -7 -77 -15z"/>
<path d="M14754 7866 c-10 -8 -16 -18 -12 -22 8 -7 65 13 74 27 9 15 -41 10
-62 -5z"/>
<path d="M14580 7845 c0 -33 77 -306 130 -460 51 -149 128 -306 178 -364 43
-50 62 -48 62 5 0 31 -3 34 -30 34 -36 0 -37 2 -120 211 -60 148 -180 499
-195 567 -8 38 -25 43 -25 7z"/>
<path d="M11943 7665 c-17 -31 -19 -68 -6 -72 18 -6 34 42 24 69 -8 22 -8 22
-18 3z"/>
<path d="M12862 7007 c-15 -18 2 -78 28 -102 38 -34 78 14 66 79 -7 34 -9 36
-45 36 -21 0 -43 -6 -49 -13z"/>
<path d="M13427 6492 c-34 -37 -11 -92 38 -92 50 0 73 60 37 93 -24 22 -55 21
-75 -1z"/>
<path d="M12610 6334 c-93 -20 -221 -66 -227 -81 -6 -16 44 -96 58 -91 5 2 26
25 47 53 49 64 90 91 160 105 31 6 71 14 87 19 28 8 27 9 -15 9 -25 0 -74 -6
-110 -14z"/>
<path d="M12669 6125 c-74 -13 -196 -37 -270 -54 -74 -17 -161 -34 -193 -39
-33 -4 -61 -13 -64 -19 -6 -19 16 -16 146 16 64 17 164 35 222 41 127 14 228
34 301 59 45 16 49 20 24 20 -16 -1 -91 -11 -166 -24z"/>
<path d="M12405 5849 c-264 -54 -269 -55 -261 -68 4 -6 381 62 514 94 26 6 30
25 5 24 -10 -1 -126 -23 -258 -50z"/>
<path d="M12954 5764 c-25 -37 -9 -78 31 -82 34 -4 55 18 55 58 0 53 -57 69
-86 24z"/>
<path d="M12285 5590 l-40 -6 45 -21 c24 -12 48 -19 52 -17 13 8 9 54 -4 53
-7 -1 -31 -5 -53 -9z"/>
<path d="M12246 5395 c-64 -23 -70 -38 -11 -31 86 11 105 17 105 32 0 18 -42
18 -94 -1z"/>
<path d="M12172 5194 c-14 -52 -8 -69 14 -40 15 21 20 86 6 86 -4 0 -13 -21
-20 -46z"/>
<path d="M11567 6610 c-97 -15 -180 -30 -184 -33 -18 -19 21 -17 189 7 101 14
186 26 191 26 4 0 7 7 7 15 0 18 17 19 -203 -15z"/>
<path d="M10530 6333 c0 -43 16 -66 26 -38 4 8 -1 30 -10 48 l-16 32 0 -42z"/>
<path d="M10335 6340 c-4 -6 -3 -16 3 -22 6 -6 12 -6 17 2 4 6 3 16 -3 22 -6
6 -12 6 -17 -2z"/>
<path d="M10555 6218 c-49 -10 -126 -22 -170 -24 -96 -6 -119 -12 -90 -24 34
-15 100 -11 156 9 36 12 62 15 76 10 15 -5 35 -3 57 6 20 8 61 15 93 15 45 0
62 -5 81 -22 22 -20 24 -21 18 -4 -4 12 0 26 10 37 17 18 14 19 -62 18 -43 0
-119 -10 -169 -21z"/>
<path d="M11655 6153 c-117 -15 -346 -57 -374 -69 -20 -8 -69 -14 -120 -14
-85 -1 -213 -19 -261 -38 -24 -10 -24 -10 12 -17 23 -4 89 1 177 15 77 12 147
20 155 17 9 -4 23 -23 33 -44 17 -36 21 -38 63 -38 l45 0 -2 62 c-3 73 -18 66
159 81 77 7 132 18 160 31 41 18 42 19 13 19 -16 -1 -43 -3 -60 -5z"/>
<path d="M10560 6113 c0 -16 3 -58 7 -95 l6 -68 34 0 c27 0 42 -9 72 -41 35
-35 44 -40 78 -37 l38 3 3 68 c4 81 -4 87 -87 63 -106 -30 -139 -14 -125 58 6
37 -2 76 -17 76 -5 0 -9 -12 -9 -27z"/>
<path d="M10125 5917 c-43 -28 -50 -37 -48 -62 3 -35 44 -75 77 -75 33 0 54
29 66 90 6 30 14 58 19 63 13 13 120 -3 137 -21 18 -18 40 -2 31 22 -5 13 -26
16 -119 16 -111 0 -114 -1 -163 -33z"/>
<path d="M11440 5887 c-32 -10 -33 -11 -10 -14 14 -2 45 3 70 11 l45 14 -35 0
c-19 0 -51 -5 -70 -11z"/>
<path d="M11145 5851 c-24 -10 -78 -20 -135 -24 -52 -4 -133 -16 -179 -27 -47
-12 -91 -18 -99 -15 -17 6 -62 -4 -62 -15 0 -4 35 -10 78 -12 58 -4 81 -1 94
10 10 8 89 25 195 41 149 22 178 29 181 44 4 22 -21 22 -73 -2z"/>
<path d="M10618 5804 c-12 -11 -9 -72 3 -79 18 -12 22 3 13 46 -5 22 -12 37
-16 33z"/>
<path d="M10407 5780 c-20 -29 -21 -66 -3 -100 14 -23 14 -22 21 32 4 30 5 64
3 74 -3 17 -5 17 -21 -6z"/>
<path d="M11815 5733 c-248 -31 -599 -101 -510 -103 62 -1 525 83 555 101 17
9 14 10 -45 2z"/>
<path d="M10155 5700 c-7 -12 43 -12 100 -1 37 8 35 9 -27 10 -37 0 -70 -3
-73 -9z"/>
<path d="M11065 5614 c-111 -23 -139 -31 -90 -26 39 4 114 7 167 6 89 -1 97 1
102 19 5 21 0 38 -12 36 -4 -1 -79 -16 -167 -35z"/>
<path d="M10451 5529 c-57 -10 -106 -20 -109 -23 -3 -4 28 -6 70 -6 74 0 172
21 183 40 8 13 -21 11 -144 -11z"/>
<path d="M10630 5541 c0 -5 6 -14 14 -20 11 -9 21 -7 48 9 l33 20 -47 0 c-27
0 -48 -4 -48 -9z"/>
<path d="M10220 5510 c0 -15 23 -60 30 -60 9 0 45 39 39 43 -49 29 -69 34 -69
17z"/>
<path d="M11605 5483 c-27 -9 -44 -18 -37 -20 21 -8 98 7 118 22 18 14 18 14
-6 14 -14 0 -47 -7 -75 -16z"/>
<path d="M11342 5474 c-26 -18 -30 -75 -7 -94 37 -31 105 0 105 47 0 27 -33
63 -58 63 -10 0 -28 -7 -40 -16z"/>
<path d="M11175 5419 c-27 -9 -66 -18 -86 -18 -20 -1 -42 -8 -49 -16 -16 -20
-7 -19 88 0 65 14 77 14 103 1 28 -14 29 -14 29 9 0 37 -27 45 -85 24z"/>
<path d="M10751 5374 c-25 -32 -26 -43 -5 -72 21 -30 68 -29 99 3 30 29 32 56
7 78 -29 26 -77 22 -101 -9z"/>
<path d="M10637 5338 c-8 -28 11 -104 29 -119 12 -10 13 -1 8 52 -3 35 -7 70
-10 77 -6 19 -21 14 -27 -10z"/>
<path d="M10262 5333 c-23 -42 -8 -113 23 -113 18 0 19 20 2 85 -13 46 -14 48
-25 28z"/>
<path d="M10444 5299 c-13 -22 13 -32 45 -18 17 8 31 17 31 21 0 12 -68 9 -76
-3z"/>
<path d="M11775 5286 c-18 -13 -18 -14 3 -25 34 -18 52 -14 52 14 0 29 -24 34
-55 11z"/>
<path d="M11434 5240 c-34 -13 -39 -30 -9 -30 30 0 65 16 65 30 0 12 -27 12
-56 0z"/>
<path d="M10863 5151 c-199 -27 -236 -39 -199 -67 23 -16 36 -18 36 -4 0 21
64 40 181 55 68 8 142 15 165 15 28 0 44 5 48 15 7 19 7 19 -231 -14z"/>
<path d="M11822 5120 c-16 -26 -15 -37 3 -44 36 -14 61 24 33 52 -16 16 -21
15 -36 -8z"/>
<path d="M10281 5085 c-9 -25 -9 -40 -1 -55 15 -27 30 -25 30 4 0 13 3 38 6
55 9 44 -18 41 -35 -4z"/>
<path d="M10441 5101 c-23 -15 -2 -31 39 -31 47 0 93 16 85 30 -8 12 -105 13
-124 1z"/>
<path d="M11630 5058 l-25 -11 24 -5 c30 -5 71 5 71 18 0 13 -38 12 -70 -2z"/>
<path d="M11301 5011 c-14 -4 -27 -13 -29 -20 -4 -11 1 -12 19 -7 13 5 36 10
52 13 15 3 30 9 33 14 6 10 -39 10 -75 0z"/>
<path d="M10845 4943 c-55 -8 -51 -23 6 -23 61 0 99 8 99 21 0 9 -49 10 -105
2z"/>
<path d="M10686 4914 c-9 -25 -6 -57 8 -83 13 -23 13 -23 19 15 10 61 8 84 -7
84 -8 0 -17 -7 -20 -16z"/>
<path d="M10504 4886 c-13 -10 -16 -18 -9 -25 12 -12 56 7 63 27 5 17 -30 15
-54 -2z"/>
<path d="M10295 4874 c-15 -11 -37 -15 -83 -12 -41 3 -61 0 -59 -7 3 -6 26 -9
57 -7 71 5 97 -3 114 -36 l14 -27 12 30 c8 21 8 36 1 52 -12 27 -28 29 -56 7z"/>
<path d="M7630 6420 c0 -5 18 -10 40 -10 22 0 40 5 40 10 0 6 -18 10 -40 10
-22 0 -40 -4 -40 -10z"/>
<path d="M8800 6507 c-64 -15 -106 -36 -94 -46 5 -5 81 -2 169 5 88 7 169 13
180 13 18 1 18 2 2 18 -22 22 -178 28 -257 10z"/>
<path d="M9443 6469 l-33 -10 0 -69 c0 -81 14 -72 -160 -95 -69 -9 -147 -20
-175 -25 l-50 -8 48 -1 c82 -2 236 19 323 45 96 27 115 29 133 12 11 -11 12
-9 8 7 -3 11 -11 46 -16 78 -15 84 -15 84 -78 66z"/>
<path d="M8542 6458 c2 -6 12 -16 21 -22 13 -8 20 -7 27 4 12 20 3 30 -26 30
-15 0 -24 -5 -22 -12z"/>
<path d="M8231 6449 c-71 -14 -62 -22 16 -16 82 7 136 27 68 26 -22 -1 -60 -5
-84 -10z"/>
<path d="M8827 6432 c-20 -22 -23 -114 -4 -130 16 -13 120 -32 166 -31 28 1
30 3 11 6 -38 7 -47 19 -52 73 -7 68 -30 100 -72 100 -19 0 -40 -8 -49 -18z"/>
<path d="M8000 6415 c0 -25 25 -28 61 -6 l34 21 -47 0 c-37 0 -48 -4 -48 -15z"/>
<path d="M9727 6393 c-13 -13 -7 -95 10 -126 l17 -32 10 43 c13 62 -12 141
-37 115z"/>
<path d="M8265 6363 c-16 -15 -16 -48 1 -104 2 -9 -5 -28 -17 -42 -18 -24 -28
-27 -77 -27 -42 0 -53 -3 -45 -11 15 -15 121 5 175 32 68 35 83 79 48 137 -22
36 -58 43 -85 15z"/>
<path d="M8637 6241 c-90 -16 -107 -29 -61 -45 20 -6 36 -3 65 14 27 15 53 21
82 19 44 -3 67 5 67 22 0 13 -50 10 -153 -10z"/>
<path d="M9755 6123 c-47 -11 -36 -23 22 -23 67 0 91 14 42 24 -18 3 -34 5
-38 5 -3 -1 -15 -3 -26 -6z"/>
<path d="M9360 6089 c-15 -27 -9 -64 10 -64 10 0 16 13 18 43 3 45 -10 56 -28
21z"/>
<path d="M9092 6051 c-57 -20 -82 -36 -42 -27 101 21 130 29 130 37 0 13 -28
10 -88 -10z"/>
<path d="M8765 6031 c-27 -7 -25 -8 24 -15 65 -10 230 2 210 15 -16 10 -190
10 -234 0z"/>
<path d="M8560 6010 c-35 -7 -35 -7 10 -8 25 0 54 3 65 8 17 7 15 8 -10 8 -16
0 -46 -4 -65 -8z"/>
<path d="M8200 5972 c0 -10 70 -36 77 -28 3 3 3 12 0 21 -7 16 -77 22 -77 7z"/>
<path d="M8643 5803 c-7 -2 -13 -13 -13 -24 0 -22 24 -24 59 -5 24 13 24 14 3
25 -22 12 -30 12 -49 4z"/>
<path d="M8080 5755 c0 -8 9 -15 20 -15 11 0 20 7 20 15 0 8 -9 15 -20 15 -11
0 -20 -7 -20 -15z"/>
<path d="M8418 5763 c-34 -5 -36 -21 -4 -29 35 -8 60 -1 64 19 4 17 -3 19 -60
10z"/>
<path d="M9767 5664 c-12 -12 4 -24 31 -24 37 0 72 11 72 21 0 10 -93 12 -103
3z"/>
<path d="M9601 5647 c-15 -18 -3 -28 25 -22 78 16 78 16 63 26 -21 13 -75 11
-88 -4z"/>
<path d="M12447 4573 c-12 -11 -8 -68 5 -81 35 -35 73 13 49 64 -10 23 -40 32
-54 17z"/>
<path d="M12408 4034 c-14 -31 -1 -57 31 -62 15 -3 24 4 31 23 21 55 -38 93
-62 39z"/>
<path d="M11845 4710 c3 -5 28 -10 56 -10 27 0 49 5 49 10 0 6 -25 10 -56 10
-34 0 -53 -4 -49 -10z"/>
<path d="M11231 4600 c-106 -12 -201 -31 -201 -41 0 -5 17 -7 38 -4 20 2 62 7
92 10 87 9 170 27 170 36 0 5 -6 8 -12 8 -7 -1 -46 -5 -87 -9z"/>
<path d="M10921 4557 c-6 -6 -11 -19 -11 -30 0 -27 44 -19 48 9 3 25 -20 38
-37 21z"/>
<path d="M10730 4530 c1 -14 7 -71 14 -127 12 -96 19 -123 31 -111 7 7 -26
242 -36 253 -5 5 -9 -1 -9 -15z"/>
<path d="M10555 4478 c-4 -10 -4 -26 0 -35 4 -10 11 -63 15 -118 l7 -100 0
110 c1 117 -8 175 -22 143z"/>
<path d="M10387 4379 c-8 -46 -2 -79 14 -79 11 0 11 30 0 85 l-7 40 -7 -46z"/>
<path d="M11053 4383 c-85 -3 -93 -6 -93 -23 0 -11 4 -20 8 -20 27 0 229 22
242 26 22 8 -8 24 -40 22 -14 -1 -67 -4 -117 -5z"/>
<path d="M11433 4380 c-29 -12 -29 -35 -2 -80 31 -51 60 -80 81 -80 21 0 24
30 6 48 -7 7 -15 36 -18 65 -5 56 -20 66 -67 47z"/>
<path d="M10876 4317 c-9 -7 -20 -31 -23 -52 -6 -50 22 -90 75 -104 43 -12 59
-2 43 27 -6 11 -11 43 -11 69 0 27 -5 54 -12 61 -16 16 -50 15 -72 -1z"/>
<path d="M10406 4085 c-3 -9 1 -18 9 -21 18 -7 47 14 39 27 -9 15 -41 10 -48
-6z"/>
<path d="M10772 3978 c-17 -17 -15 -32 7 -52 23 -21 33 -8 25 33 -7 34 -13 38
-32 19z"/>
<path d="M10596 3942 c-2 -4 -1 -14 3 -21 10 -15 59 -8 101 15 23 12 21 13
-37 14 -34 0 -64 -4 -67 -8z"/>
<path d="M10447 3933 c-11 -10 -8 -73 3 -73 15 0 34 46 27 64 -7 17 -19 21
-30 9z"/>
<path d="M11420 3878 c-24 -13 -46 -28 -48 -35 -3 -12 86 -63 111 -63 11 0 37
76 37 111 0 17 -55 9 -100 -13z"/>
<path d="M10814 3825 c-11 -29 16 -73 54 -88 74 -29 99 -30 116 -5 38 55 11
93 -58 83 -35 -6 -52 -3 -71 9 -30 20 -34 20 -41 1z"/>
<path d="M10630 3760 c0 -35 25 -42 35 -10 8 24 -1 40 -21 40 -9 0 -14 -11
-14 -30z"/>
<path d="M11740 3774 c-60 -16 -97 -41 -45 -31 94 19 180 39 184 43 10 10 -88
2 -139 -12z"/>
<path d="M10444 3755 c-8 -21 2 -45 19 -45 8 0 20 7 27 15 10 12 10 18 0 30
-7 8 -19 15 -27 15 -7 0 -16 -7 -19 -15z"/>
<path d="M10812 3619 c2 -18 9 -34 16 -37 10 -3 13 5 10 29 -2 18 -9 34 -16
37 -10 3 -13 -5 -10 -29z"/>
<path d="M10656 3614 c-9 -24 -7 -84 3 -84 12 0 21 26 21 60 0 33 -15 48 -24
24z"/>
<path d="M10462 3593 c2 -11 14 -19 31 -21 31 -4 36 12 8 28 -29 15 -43 12
-39 -7z"/>
<path d="M11422 3420 c-28 -12 -40 -39 -21 -51 33 -21 109 1 109 32 0 28 -42
37 -88 19z"/>
<path d="M10973 3334 c-7 -20 9 -49 28 -49 22 0 18 59 -4 63 -9 2 -20 -4 -24
-14z"/>
</g>
</svg>
